AlumniSansPinstripe-Regular.ufo
<glyph name="dollar" format="2">
  <advance width="320"/>
  <unicode hex="0024"/>
  <note>
dollar
</note>
  <outline>
    <contour>
      <point x="159" y="54" type="curve" smooth="yes"/>
      <point x="222" y="54"/>
      <point x="279" y="79"/>
      <point x="279" y="156" type="curve" smooth="yes"/>
      <point x="279" y="194" type="line" smooth="yes"/>
      <point x="279" y="277"/>
      <point x="218" y="302"/>
      <point x="159" y="329" type="curve" smooth="yes"/>
      <point x="116" y="349"/>
      <point x="56" y="371"/>
      <point x="56" y="437" type="curve" smooth="yes"/>
      <point x="56" y="455" type="line" smooth="yes"/>
      <point x="56" y="509"/>
      <point x="94" y="546"/>
      <point x="161" y="546" type="curve" smooth="yes"/>
      <point x="228" y="546"/>
      <point x="264" y="519"/>
      <point x="264" y="455" type="curve" smooth="yes"/>
      <point x="264" y="396" type="line"/>
      <point x="280" y="396" type="line"/>
      <point x="280" y="461" type="line" smooth="yes"/>
      <point x="280" y="533"/>
      <point x="230" y="562"/>
      <point x="161" y="562" type="curve" smooth="yes"/>
      <point x="85" y="562"/>
      <point x="40" y="520"/>
      <point x="40" y="464" type="curve" smooth="yes"/>
      <point x="40" y="430" type="line" smooth="yes"/>
      <point x="40" y="364"/>
      <point x="91" y="342"/>
      <point x="154" y="314" type="curve" smooth="yes"/>
      <point x="209" y="290"/>
      <point x="263" y="269"/>
      <point x="263" y="194" type="curve" smooth="yes"/>
      <point x="263" y="156" type="line" smooth="yes"/>
      <point x="263" y="94"/>
      <point x="222" y="70"/>
      <point x="159" y="70" type="curve" smooth="yes"/>
      <point x="99" y="70"/>
      <point x="57" y="100"/>
      <point x="57" y="159" type="curve" smooth="yes"/>
      <point x="57" y="226" type="line"/>
      <point x="41" y="226" type="line"/>
      <point x="41" y="159" type="line" smooth="yes"/>
      <point x="41" y="86"/>
      <point x="90" y="54"/>
    </contour>
    <contour>
      <point x="104" y="-81" type="line"/>
      <point x="120" y="-81" type="line"/>
      <point x="214" y="659" type="line"/>
      <point x="198" y="659" type="line"/>
    </contour>
  </outline>
</glyph>
<glyph name="ampersand" format="2">
  <advance width="520"/>
  <unicode hex="0026"/>
  <note>
ampersand
</note>
  <outline>
    <contour>
      <point x="216" y="-6" type="curve" smooth="yes"/>
      <point x="307" y="-6"/>
      <point x="358" y="54"/>
      <point x="358" y="105" type="curve"/>
      <point x="404" y="54"/>
      <point x="453" y="3"/>
      <point x="480" y="-4" type="curve"/>
      <point x="480" y="12" type="line"/>
      <point x="461" y="15"/>
      <point x="386" y="95"/>
      <point x="360" y="127" type="curve"/>
      <point x="360" y="301" type="line"/>
      <point x="472" y="301" type="line"/>
      <point x="472" y="317" type="line"/>
      <point x="344" y="317" type="line"/>
      <point x="344" y="147" type="line"/>
      <point x="296" y="203"/>
      <point x="248" y="260"/>
      <point x="202" y="316" type="curve" smooth="yes"/>
      <point x="185" y="339"/>
      <point x="167" y="365"/>
      <point x="167" y="406" type="curve" smooth="yes"/>
      <point x="167" y="413" type="line" smooth="yes"/>
      <point x="167" y="461"/>
      <point x="196" y="490"/>
      <point x="264" y="490" type="curve" smooth="yes"/>
      <point x="307" y="490"/>
      <point x="351" y="477"/>
      <point x="368" y="469" type="curve"/>
      <point x="368" y="487" type="line"/>
      <point x="353" y="494"/>
      <point x="311" y="506"/>
      <point x="264" y="506" type="curve" smooth="yes"/>
      <point x="184" y="506"/>
      <point x="149" y="469"/>
      <point x="149" y="405" type="curve" smooth="yes"/>
      <point x="149" y="368"/>
      <point x="161" y="341"/>
      <point x="182" y="314" type="curve"/>
      <point x="114" y="303"/>
      <point x="70" y="243"/>
      <point x="70" y="178" type="curve" smooth="yes"/>
      <point x="70" y="138" type="line" smooth="yes"/>
      <point x="70" y="59"/>
      <point x="107" y="-6"/>
    </contour>
    <contour>
      <point x="216" y="10" type="curve" smooth="yes"/>
      <point x="132" y="10"/>
      <point x="86" y="53"/>
      <point x="86" y="134" type="curve" smooth="yes"/>
      <point x="86" y="178" type="line" smooth="yes"/>
      <point x="86" y="247"/>
      <point x="145" y="305"/>
      <point x="193" y="301" type="curve"/>
      <point x="240" y="244"/>
      <point x="292" y="184"/>
      <point x="344" y="123" type="curve"/>
      <point x="344" y="58"/>
      <point x="296" y="10"/>
    </contour>
  </outline>
</glyph>
<glyph name="parenleft" format="2">
  <advance width="317"/>
  <unicode hex="0028"/>
  <note>
parenleft
</note>
  <outline>
    <contour>
      <point x="276" y="-124" type="curve"/>
      <point x="276" y="-112" type="line"/>
      <point x="148" y="-92"/>
      <point x="80" y="75"/>
      <point x="80" y="252" type="curve" smooth="yes"/>
      <point x="80" y="444"/>
      <point x="170" y="619"/>
      <point x="287" y="655" type="curve"/>
      <point x="287" y="667" type="line"/>
      <point x="156" y="643"/>
      <point x="63" y="441"/>
      <point x="63" y="249" type="curve" smooth="yes"/>
      <point x="63" y="65"/>
      <point x="138" y="-113"/>
    </contour>
  </outline>
</glyph>
<glyph name="parenright" format="2">
  <advance width="317"/>
  <unicode hex="0029"/>
  <note>
parenright
</note>
  <outline>
    <contour>
      <point x="41" y="667" type="curve"/>
      <point x="41" y="655" type="line"/>
      <point x="169" y="635"/>
      <point x="237" y="468"/>
      <point x="237" y="291" type="curve" smooth="yes"/>
      <point x="237" y="99"/>
      <point x="147" y="-76"/>
      <point x="30" y="-112" type="curve"/>
      <point x="30" y="-124" type="line"/>
      <point x="161" y="-100"/>
      <point x="254" y="102"/>
      <point x="254" y="294" type="curve" smooth="yes"/>
      <point x="254" y="478"/>
      <point x="179" y="656"/>
    </contour>
  </outline>
</glyph>
<glyph name="asterisk" format="2">
  <advance width="469"/>
  <unicode hex="002A"/>
  <note>
asterisk
</note>
  <outline>
    <contour>
      <point x="121" y="264" type="line"/>
      <point x="234" y="421" type="line"/>
      <point x="347" y="264" type="line"/>
      <point x="361" y="274" type="line"/>
      <point x="245" y="431" type="line"/>
      <point x="429" y="487" type="line"/>
      <point x="424" y="502" type="line"/>
      <point x="241" y="442" type="line"/>
      <point x="243" y="630" type="line"/>
      <point x="227" y="630" type="line"/>
      <point x="227" y="442" type="line"/>
      <point x="45" y="503" type="line"/>
      <point x="40" y="488" type="line"/>
      <point x="222" y="429" type="line"/>
      <point x="108" y="273" type="line"/>
    </contour>
  </outline>
</glyph>
<glyph name="plus" format="2">
  <advance width="364"/>
  <unicode hex="002B"/>
  <note>
plus
</note>
  <outline>
    <contour>
      <point x="174" y="160" type="line"/>
      <point x="190" y="160" type="line"/>
      <point x="190" y="284" type="line"/>
      <point x="314" y="284" type="line"/>
      <point x="314" y="300" type="line"/>
      <point x="190" y="300" type="line"/>
      <point x="190" y="424" type="line"/>
      <point x="174" y="424" type="line"/>
      <point x="174" y="300" type="line"/>
      <point x="50" y="300" type="line"/>
      <point x="50" y="284" type="line"/>
      <point x="174" y="284" type="line"/>
    </contour>
  </outline>
</glyph>
<glyph name="comma" format="2">
  <advance width="132"/>
  <unicode hex="002C"/>
  <note>
comma
</note>
  <outline>
    <contour>
      <point x="41" y="-87" type="curve"/>
      <point x="54" y="-87" type="line"/>
      <point x="71" y="-62"/>
      <point x="89" y="-23"/>
      <point x="89" y="4" type="curve" smooth="yes"/>
      <point x="89" y="17"/>
      <point x="83" y="29"/>
      <point x="68" y="29" type="curve" smooth="yes"/>
      <point x="57" y="29"/>
      <point x="51" y="19"/>
      <point x="51" y="10" type="curve" smooth="yes"/>
      <point x="51" y="-10"/>
      <point x="66" y="-10"/>
      <point x="66" y="-23" type="curve" smooth="yes"/>
      <point x="66" y="-41"/>
      <point x="49" y="-73"/>
    </contour>
  </outline>
</glyph>
<glyph name="slash" format="2">
  <advance width="441"/>
  <unicode hex="002F"/>
  <note>
slash
</note>
  <outline>
    <contour>
      <point x="40" y="-46" type="line"/>
      <point x="58" y="-46" type="line"/>
      <point x="401" y="631" type="line"/>
      <point x="384" y="631" type="line"/>
    </contour>
  </outline>
</glyph>
<glyph name="one" format="2">
  <advance width="201"/>
  <unicode hex="0031"/>
  <note>
one
</note>
  <outline>
    <contour>
      <point x="109" y="0" type="line"/>
      <point x="125" y="0" type="line"/>
      <point x="125" y="591" type="line"/>
      <point x="110" y="591" type="line"/>
      <point x="110" y="552" type="line" smooth="yes"/>
      <point x="110" y="528"/>
      <point x="99" y="511"/>
      <point x="71" y="511" type="curve" smooth="yes"/>
      <point x="24" y="511" type="line"/>
      <point x="24" y="495" type="line"/>
      <point x="109" y="495" type="line"/>
    </contour>
  </outline>
</glyph>
<glyph name="two" format="2">
  <advance width="385"/>
  <unicode hex="0032"/>
  <note>
two
</note>
  <outline>
    <contour>
      <point x="66" y="0" type="line"/>
      <point x="338" y="0" type="line"/>
      <point x="338" y="16" type="line"/>
      <point x="84" y="16" type="line"/>
      <point x="84" y="105" type="line" smooth="yes"/>
      <point x="84" y="184"/>
      <point x="138" y="215"/>
      <point x="206" y="254" type="curve" smooth="yes"/>
      <point x="286" y="300"/>
      <point x="332" y="358"/>
      <point x="332" y="450" type="curve" smooth="yes"/>
      <point x="332" y="545"/>
      <point x="289" y="595"/>
      <point x="196" y="595" type="curve" smooth="yes"/>
      <point x="112" y="595"/>
      <point x="62" y="551"/>
      <point x="62" y="458" type="curve" smooth="yes"/>
      <point x="62" y="409" type="line"/>
      <point x="78" y="409" type="line"/>
      <point x="78" y="462" type="line" smooth="yes"/>
      <point x="78" y="543"/>
      <point x="126" y="578"/>
      <point x="196" y="578" type="curve" smooth="yes"/>
      <point x="279" y="578"/>
      <point x="316" y="538"/>
      <point x="316" y="454" type="curve" smooth="yes"/>
      <point x="316" y="440" type="line" smooth="yes"/>
      <point x="316" y="355"/>
      <point x="263" y="307"/>
      <point x="195" y="266" type="curve" smooth="yes"/>
      <point x="128" y="226"/>
      <point x="66" y="195"/>
      <point x="66" y="105" type="curve" smooth="yes"/>
    </contour>
  </outline>
</glyph>
<glyph name="three" format="2">
  <advance width="390"/>
  <unicode hex="0033"/>
  <note>
three
</note>
  <outline>
    <contour>
      <point x="200" y="-8" type="curve" smooth="yes"/>
      <point x="287" y="-8"/>
      <point x="341" y="41"/>
      <point x="341" y="137" type="curve" smooth="yes"/>
      <point x="341" y="163" type="line" smooth="yes"/>
      <point x="341" y="232"/>
      <point x="310" y="298"/>
      <point x="230" y="309" type="curve"/>
      <point x="294" y="321"/>
      <point x="335" y="373"/>
      <point x="335" y="442" type="curve" smooth="yes"/>
      <point x="335" y="460" type="line" smooth="yes"/>
      <point x="335" y="543"/>
      <point x="289" y="595"/>
      <point x="200" y="595" type="curve" smooth="yes"/>
      <point x="111" y="595"/>
      <point x="65" y="543"/>
      <point x="65" y="460" type="curve" smooth="yes"/>
      <point x="65" y="429" type="line"/>
      <point x="81" y="429" type="line"/>
      <point x="81" y="459" type="line" smooth="yes"/>
      <point x="81" y="534"/>
      <point x="116" y="579"/>
      <point x="200" y="579" type="curve" smooth="yes"/>
      <point x="284" y="579"/>
      <point x="318" y="534"/>
      <point x="318" y="459" type="curve" smooth="yes"/>
      <point x="318" y="440" type="line" smooth="yes"/>
      <point x="318" y="370"/>
      <point x="272" y="317"/>
      <point x="200" y="317" type="curve" smooth="yes"/>
      <point x="136" y="317" type="line"/>
      <point x="136" y="301" type="line"/>
      <point x="200" y="301" type="line" smooth="yes"/>
      <point x="283" y="301"/>
      <point x="325" y="247"/>
      <point x="325" y="163" type="curve" smooth="yes"/>
      <point x="325" y="137" type="line" smooth="yes"/>
      <point x="325" y="51"/>
      <point x="285" y="9"/>
      <point x="200" y="7" type="curve" smooth="yes"/>
      <point x="118" y="9"/>
      <point x="75" y="48"/>
      <point x="75" y="137" type="curve" smooth="yes"/>
      <point x="75" y="183" type="line"/>
      <point x="59" y="183" type="line"/>
      <point x="59" y="137" type="line" smooth="yes"/>
      <point x="59" y="44"/>
      <point x="110" y="-8"/>
    </contour>
  </outline>
</glyph>
<glyph name="five" format="2">
  <advance width="430"/>
  <unicode hex="0035"/>
  <note>
five
</note>
  <outline>
    <contour>
      <point x="222" y="-8" type="curve" smooth="yes"/>
      <point x="294" y="-8"/>
      <point x="371" y="19"/>
      <point x="371" y="163" type="curve" smooth="yes"/>
      <point x="371" y="241" type="line" smooth="yes"/>
      <point x="371" y="360"/>
      <point x="312" y="392"/>
      <point x="226" y="392" type="curve" smooth="yes"/>
      <point x="170" y="392"/>
      <point x="123" y="371"/>
      <point x="100" y="332" type="curve"/>
      <point x="104" y="326" type="line"/>
      <point x="104" y="575" type="line"/>
      <point x="346" y="575" type="line"/>
      <point x="346" y="591" type="line"/>
      <point x="89" y="591" type="line"/>
      <point x="89" y="296" type="line"/>
      <point x="104" y="296" type="line"/>
      <point x="107" y="332"/>
      <point x="149" y="376"/>
      <point x="226" y="376" type="curve" smooth="yes"/>
      <point x="331" y="376"/>
      <point x="355" y="317"/>
      <point x="355" y="242" type="curve" smooth="yes"/>
      <point x="355" y="160" type="line" smooth="yes"/>
      <point x="355" y="56"/>
      <point x="303" y="4"/>
      <point x="223" y="4" type="curve" smooth="yes"/>
      <point x="104" y="4"/>
      <point x="97" y="94"/>
      <point x="97" y="154" type="curve" smooth="yes"/>
      <point x="97" y="168" type="line"/>
      <point x="81" y="168" type="line"/>
      <point x="81" y="151" type="line" smooth="yes"/>
      <point x="81" y="0"/>
      <point x="167" y="-8"/>
    </contour>
  </outline>
</glyph>
<glyph name="six" format="2">
  <advance width="428"/>
  <unicode hex="0036"/>
  <note>
six
</note>
  <outline>
    <contour>
      <point x="215" y="-9" type="curve" smooth="yes"/>
      <point x="288" y="-9"/>
      <point x="365" y="13"/>
      <point x="365" y="158" type="curve" smooth="yes"/>
      <point x="365" y="205" type="line" smooth="yes"/>
      <point x="365" y="322"/>
      <point x="308" y="355"/>
      <point x="226" y="355" type="curve" smooth="yes"/>
      <point x="158" y="355"/>
      <point x="116" y="326"/>
      <point x="84" y="288" type="curve"/>
      <point x="84" y="454" type="line" smooth="yes"/>
      <point x="84" y="525"/>
      <point x="133" y="577"/>
      <point x="213" y="577" type="curve" smooth="yes"/>
      <point x="288" y="577"/>
      <point x="332" y="540"/>
      <point x="332" y="460" type="curve" smooth="yes"/>
      <point x="332" y="449" type="line"/>
      <point x="348" y="449" type="line"/>
      <point x="348" y="456" type="line" smooth="yes"/>
      <point x="348" y="549"/>
      <point x="300" y="593"/>
      <point x="213" y="593" type="curve" smooth="yes"/>
      <point x="128" y="593"/>
      <point x="67" y="538"/>
      <point x="67" y="450" type="curve" smooth="yes"/>
      <point x="67" y="149" type="line" smooth="yes"/>
      <point x="67" y="-6"/>
      <point x="162" y="-9"/>
    </contour>
    <contour>
      <point x="215" y="7" type="curve" smooth="yes"/>
      <point x="94" y="7"/>
      <point x="83" y="92"/>
      <point x="83" y="152" type="curve" smooth="yes"/>
      <point x="83" y="234" type="line" smooth="yes"/>
      <point x="83" y="279"/>
      <point x="145" y="339"/>
      <point x="226" y="339" type="curve" smooth="yes"/>
      <point x="327" y="339"/>
      <point x="349" y="270"/>
      <point x="349" y="190" type="curve" smooth="yes"/>
      <point x="349" y="158" type="line" smooth="yes"/>
      <point x="349" y="54"/>
      <point x="298" y="7"/>
    </contour>
  </outline>
</glyph>
<glyph name="seven" format="2">
  <advance width="275"/>
  <unicode hex="0037"/>
  <note>
seven
</note>
  <outline>
    <contour>
      <point x="59" y="0" type="line"/>
      <point x="76" y="0" type="line"/>
      <point x="245" y="576" type="line"/>
      <point x="245" y="591" type="line"/>
      <point x="12" y="591" type="line"/>
      <point x="12" y="575" type="line"/>
      <point x="228" y="575" type="line"/>
    </contour>
  </outline>
</glyph>
<glyph name="eight" format="2">
  <advance width="404"/>
  <unicode hex="0038"/>
  <note>
eight
</note>
  <outline>
    <contour>
      <point x="202" y="-8" type="curve" smooth="yes"/>
      <point x="289" y="-8"/>
      <point x="343" y="41"/>
      <point x="343" y="137" type="curve" smooth="yes"/>
      <point x="343" y="163" type="line" smooth="yes"/>
      <point x="343" y="232"/>
      <point x="315" y="298"/>
      <point x="232" y="309" type="curve"/>
      <point x="296" y="321"/>
      <point x="337" y="373"/>
      <point x="337" y="442" type="curve" smooth="yes"/>
      <point x="337" y="460" type="line" smooth="yes"/>
      <point x="337" y="543"/>
      <point x="291" y="595"/>
      <point x="202" y="595" type="curve" smooth="yes"/>
      <point x="113" y="595"/>
      <point x="67" y="543"/>
      <point x="67" y="460" type="curve" smooth="yes"/>
      <point x="67" y="442" type="line" smooth="yes"/>
      <point x="67" y="373"/>
      <point x="108" y="321"/>
      <point x="172" y="309" type="curve"/>
      <point x="89" y="298"/>
      <point x="61" y="232"/>
      <point x="61" y="163" type="curve" smooth="yes"/>
      <point x="61" y="137" type="line" smooth="yes"/>
      <point x="61" y="44"/>
      <point x="112" y="-8"/>
    </contour>
    <contour>
      <point x="202" y="8" type="curve" smooth="yes"/>
      <point x="123" y="10"/>
      <point x="77" y="54"/>
      <point x="77" y="137" type="curve" smooth="yes"/>
      <point x="77" y="163" type="line" smooth="yes"/>
      <point x="77" y="245"/>
      <point x="126" y="300"/>
      <point x="202" y="300" type="curve" smooth="yes"/>
      <point x="279" y="300"/>
      <point x="327" y="245"/>
      <point x="327" y="163" type="curve" smooth="yes"/>
      <point x="327" y="137" type="line" smooth="yes"/>
      <point x="327" y="57"/>
      <point x="284" y="10"/>
    </contour>
    <contour>
      <point x="202" y="318" type="curve" smooth="yes"/>
      <point x="137" y="318"/>
      <point x="83" y="372"/>
      <point x="83" y="440" type="curve" smooth="yes"/>
      <point x="83" y="459" type="line" smooth="yes"/>
      <point x="83" y="530"/>
      <point x="120" y="579"/>
      <point x="202" y="579" type="curve" smooth="yes"/>
      <point x="284" y="579"/>
      <point x="321" y="530"/>
      <point x="321" y="459" type="curve" smooth="yes"/>
      <point x="321" y="440" type="line" smooth="yes"/>
      <point x="321" y="372"/>
      <point x="268" y="318"/>
    </contour>
  </outline>
</glyph>
<glyph name="colon" format="2">
  <advance width="132"/>
  <unicode hex="003A"/>
  <note>
colon
</note>
  <outline>
    <contour>
      <point x="66" y="317" type="curve" smooth="yes"/>
      <point x="77" y="317"/>
      <point x="82" y="322"/>
      <point x="82" y="333" type="curve" smooth="yes"/>
      <point x="82" y="344"/>
      <point x="77" y="349"/>
      <point x="66" y="349" type="curve" smooth="yes"/>
      <point x="55" y="349"/>
      <point x="50" y="344"/>
      <point x="50" y="333" type="curve" smooth="yes"/>
      <point x="50" y="322"/>
      <point x="55" y="317"/>
    </contour>
    <contour>
      <point x="66" y="-3" type="curve" smooth="yes"/>
      <point x="77" y="-3"/>
      <point x="82" y="2"/>
      <point x="82" y="13" type="curve" smooth="yes"/>
      <point x="82" y="24"/>
      <point x="77" y="29"/>
      <point x="66" y="29" type="curve" smooth="yes"/>
      <point x="55" y="29"/>
      <point x="50" y="24"/>
      <point x="50" y="13" type="curve" smooth="yes"/>
      <point x="50" y="2"/>
      <point x="55" y="-3"/>
    </contour>
  </outline>
</glyph>
<glyph name="semicolon" format="2">
  <advance width="132"/>
  <unicode hex="003B"/>
  <note>
semicolon
</note>
  <outline>
    <contour>
      <point x="41" y="-87" type="curve"/>
      <point x="51" y="-87" type="line"/>
      <point x="59" y="-78"/>
      <point x="74" y="-53"/>
      <point x="81" y="-36" type="curve" smooth="yes"/>
      <point x="85" y="-25"/>
      <point x="89" y="-10"/>
      <point x="89" y="9" type="curve" smooth="yes"/>
      <point x="89" y="20"/>
      <point x="83" y="30"/>
      <point x="70" y="30" type="curve" smooth="yes"/>
      <point x="59" y="30"/>
      <point x="53" y="21"/>
      <point x="53" y="13" type="curve" smooth="yes"/>
      <point x="53" y="8"/>
      <point x="55" y="2"/>
      <point x="59" y="-3" type="curve" smooth="yes"/>
      <point x="64" y="-8"/>
      <point x="69" y="-16"/>
      <point x="69" y="-26" type="curve" smooth="yes"/>
      <point x="69" y="-29"/>
      <point x="68" y="-33"/>
      <point x="67" y="-37" type="curve" smooth="yes"/>
      <point x="62" y="-56"/>
      <point x="45" y="-82"/>
    </contour>
    <contour>
      <point x="69" y="317" type="curve" smooth="yes"/>
      <point x="80" y="317"/>
      <point x="85" y="322"/>
      <point x="85" y="333" type="curve" smooth="yes"/>
      <point x="85" y="344"/>
      <point x="80" y="349"/>
      <point x="69" y="349" type="curve" smooth="yes"/>
      <point x="58" y="349"/>
      <point x="53" y="344"/>
      <point x="53" y="333" type="curve" smooth="yes"/>
      <point x="53" y="322"/>
      <point x="58" y="317"/>
    </contour>
  </outline>
</glyph>
<glyph name="less" format="2">
  <advance width="328"/>
  <unicode hex="003C"/>
  <note>
less
</note>
  <outline>
    <contour>
      <point x="278" y="163" type="line"/>
      <point x="278" y="183" type="line"/>
      <point x="58" y="326" type="line"/>
      <point x="278" y="472" type="line"/>
      <point x="278" y="491" type="line"/>
      <point x="40" y="333" type="line"/>
      <point x="40" y="320" type="line"/>
    </contour>
  </outline>
</glyph>
<glyph name="equal" format="2">
  <advance width="375"/>
  <unicode hex="003D"/>
  <note>
equal
</note>
  <outline>
    <contour>
      <point x="50" y="390" type="line"/>
      <point x="325" y="390" type="line"/>
      <point x="325" y="406" type="line"/>
      <point x="50" y="406" type="line"/>
    </contour>
    <contour>
      <point x="50" y="177" type="line"/>
      <point x="325" y="177" type="line"/>
      <point x="325" y="193" type="line"/>
      <point x="50" y="193" type="line"/>
    </contour>
  </outline>
</glyph>
<glyph name="greater" format="2">
  <advance width="328"/>
  <unicode hex="003E"/>
  <note>
greater
</note>
  <outline>
    <contour>
      <point x="50" y="163" type="line"/>
      <point x="288" y="320" type="line"/>
      <point x="288" y="333" type="line"/>
      <point x="50" y="491" type="line"/>
      <point x="50" y="472" type="line"/>
      <point x="270" y="326" type="line"/>
      <point x="50" y="182" type="line"/>
    </contour>
  </outline>
</glyph>
<glyph name="question" format="2">
  <advance width="368"/>
  <unicode hex="003F"/>
  <note>
question
</note>
  <outline>
    <contour>
      <point x="131" y="144" type="line"/>
      <point x="147" y="144" type="line"/>
      <point x="147" y="250" type="line"/>
      <point x="194" y="250" type="line" smooth="yes"/>
      <point x="245" y="250"/>
      <point x="321" y="285"/>
      <point x="321" y="378" type="curve" smooth="yes"/>
      <point x="321" y="449" type="line" smooth="yes"/>
      <point x="321" y="550"/>
      <point x="280" y="595"/>
      <point x="182" y="595" type="curve" smooth="yes"/>
      <point x="101" y="595"/>
      <point x="60" y="549"/>
      <point x="60" y="458" type="curve" smooth="yes"/>
      <point x="60" y="429" type="line"/>
      <point x="76" y="429" type="line"/>
      <point x="76" y="462" type="line" smooth="yes"/>
      <point x="76" y="538"/>
      <point x="114" y="579"/>
      <point x="184" y="579" type="curve" smooth="yes"/>
      <point x="265" y="579"/>
      <point x="305" y="534"/>
      <point x="305" y="451" type="curve" smooth="yes"/>
      <point x="305" y="386" type="line" smooth="yes"/>
      <point x="305" y="300"/>
      <point x="237" y="266"/>
      <point x="190" y="266" type="curve" smooth="yes"/>
      <point x="131" y="266" type="line"/>
    </contour>
    <contour>
      <point x="142" y="-3" type="curve" smooth="yes"/>
      <point x="153" y="-3"/>
      <point x="158" y="2"/>
      <point x="158" y="13" type="curve" smooth="yes"/>
      <point x="158" y="24"/>
      <point x="153" y="29"/>
      <point x="142" y="29" type="curve" smooth="yes"/>
      <point x="131" y="29"/>
      <point x="126" y="24"/>
      <point x="126" y="13" type="curve" smooth="yes"/>
      <point x="126" y="2"/>
      <point x="131" y="-3"/>
    </contour>
  </outline>
</glyph>
<glyph name="A" format="2">
  <advance width="365"/>
  <unicode hex="0041"/>
  <note>
A
</note>
  <anchor x="183" y="0" name="bottom"/>
  <anchor x="340" y="0" name="ogonek"/>
  <anchor x="182" y="591" name="top"/>
  <outline>
    <contour>
      <point x="25" y="0" type="line"/>
      <point x="42" y="0" type="line"/>
      <point x="81" y="160" type="line"/>
      <point x="283" y="160" type="line"/>
      <point x="323" y="0" type="line"/>
      <point x="340" y="0" type="line"/>
      <point x="189" y="591" type="line"/>
      <point x="176" y="591" type="line"/>
    </contour>
    <contour>
      <point x="85" y="176" type="line"/>
      <point x="179" y="532" type="line"/>
      <point x="183" y="549" type="line"/>
      <point x="187" y="532" type="line"/>
      <point x="279" y="176" type="line"/>
    </contour>
  </outline>
</glyph>
<glyph name="C" format="2">
  <advance width="404"/>
  <unicode hex="0043"/>
  <note>
C
</note>
  <anchor x="204" y="-9" name="bottom"/>
  <anchor x="204" y="591" name="top"/>
  <outline>
    <contour>
      <point x="202" y="-12" type="curve" smooth="yes"/>
      <point x="282" y="-12"/>
      <point x="340" y="2"/>
      <point x="340" y="118" type="curve" smooth="yes"/>
      <point x="340" y="189" type="line"/>
      <point x="324" y="189" type="line"/>
      <point x="324" y="116" type="line" smooth="yes"/>
      <point x="324" y="19"/>
      <point x="273" y="4"/>
      <point x="203" y="4" type="curve" smooth="yes"/>
      <point x="138" y="4"/>
      <point x="83" y="19"/>
      <point x="83" y="116" type="curve" smooth="yes"/>
      <point x="83" y="467" type="line" smooth="yes"/>
      <point x="83" y="566"/>
      <point x="128" y="583"/>
      <point x="203" y="583" type="curve" smooth="yes"/>
      <point x="274" y="583"/>
      <point x="324" y="568"/>
      <point x="324" y="473" type="curve" smooth="yes"/>
      <point x="324" y="381" type="line"/>
      <point x="340" y="381" type="line"/>
      <point x="340" y="469" type="line" smooth="yes"/>
      <point x="340" y="583"/>
      <point x="281" y="599"/>
      <point x="204" y="599" type="curve" smooth="yes"/>
      <point x="127" y="599"/>
      <point x="67" y="585"/>
      <point x="67" y="469" type="curve" smooth="yes"/>
      <point x="67" y="118" type="line" smooth="yes"/>
      <point x="67" y="4"/>
      <point x="126" y="-12"/>
    </contour>
  </outline>
</glyph>
<glyph name="E" format="2">
  <advance width="346"/>
  <unicode hex="0045"/>
  <note>
E
</note>
  <anchor x="198" y="0" name="bottom"/>
  <anchor x="302" y="0" name="ogonek"/>
  <anchor x="198" y="591" name="top"/>
  <anchor x="47" y="591" name="topleft"/>
  <outline>
    <contour>
      <point x="76" y="0" type="line"/>
      <point x="321" y="0" type="line"/>
      <point x="321" y="16" type="line"/>
      <point x="92" y="16" type="line"/>
      <point x="92" y="303" type="line"/>
      <point x="270" y="303" type="line"/>
      <point x="270" y="319" type="line"/>
      <point x="92" y="319" type="line"/>
      <point x="92" y="575" type="line"/>
      <point x="321" y="575" type="line"/>
      <point x="321" y="591" type="line"/>
      <point x="76" y="591" type="line"/>
    </contour>
  </outline>
</glyph>
<glyph name="F" format="2">
  <advance width="339"/>
  <unicode hex="0046"/>
  <note>
F
</note>
  <outline>
    <contour>
      <point x="76" y="0" type="line"/>
      <point x="92" y="0" type="line"/>
      <point x="92" y="303" type="line"/>
      <point x="270" y="303" type="line"/>
      <point x="270" y="319" type="line"/>
      <point x="92" y="319" type="line"/>
      <point x="92" y="575" type="line"/>
      <point x="321" y="575" type="line"/>
      <point x="321" y="591" type="line"/>
      <point x="76" y="591" type="line"/>
    </contour>
  </outline>
</glyph>
<glyph name="H" format="2">
  <advance width="433"/>
  <unicode hex="0048"/>
  <note>
H
</note>
  <anchor x="217" y="0" name="bottom"/>
  <anchor x="217" y="296" name="center"/>
  <anchor x="217" y="591" name="top"/>
  <anchor x="50" y="591" name="topleft"/>
  <outline>
    <contour>
      <point x="76" y="0" type="line"/>
      <point x="92" y="0" type="line"/>
      <point x="92" y="302" type="line"/>
      <point x="341" y="302" type="line"/>
      <point x="341" y="0" type="line"/>
      <point x="357" y="0" type="line"/>
      <point x="357" y="591" type="line"/>
      <point x="341" y="591" type="line"/>
      <point x="341" y="318" type="line"/>
      <point x="92" y="318" type="line"/>
      <point x="92" y="591" type="line"/>
      <point x="76" y="591" type="line"/>
    </contour>
  </outline>
</glyph>
<glyph name="J" format="2">
  <advance width="197"/>
  <unicode hex="004A"/>
  <note>
J
</note>
  <anchor x="91" y="0" name="bottom"/>
  <anchor x="111" y="591" name="top"/>
  <outline>
    <contour>
      <point x="0" y="0" type="line"/>
      <point x="20" y="0" type="line" smooth="yes"/>
      <point x="55" y="0"/>
      <point x="79" y="4"/>
      <point x="94" y="15" type="curve" smooth="yes"/>
      <point x="119" y="32"/>
      <point x="121" y="57"/>
      <point x="121" y="117" type="curve" smooth="yes"/>
      <point x="121" y="591" type="line"/>
      <point x="105" y="591" type="line"/>
      <point x="105" y="92" type="line" smooth="yes"/>
      <point x="105" y="62"/>
      <point x="98" y="36"/>
      <point x="83" y="26" type="curve" smooth="yes"/>
      <point x="70" y="17"/>
      <point x="50" y="16"/>
      <point x="23" y="16" type="curve" smooth="yes"/>
      <point x="0" y="16" type="line"/>
    </contour>
  </outline>
</glyph>
<glyph name="K" format="2">
  <advance width="336"/>
  <unicode hex="004B"/>
  <note>
K
</note>
  <anchor x="186" y="0" name="bottom"/>
  <anchor x="187" y="591" name="top"/>
  <outline>
    <contour>
      <point x="304" y="0" type="line"/>
      <point x="323" y="0" type="line"/>
      <point x="138" y="306" type="line"/>
      <point x="319" y="591" type="line"/>
      <point x="300" y="591" type="line"/>
      <point x="120" y="306" type="line"/>
    </contour>
    <contour>
      <point x="76" y="0" type="line"/>
      <point x="92" y="0" type="line"/>
      <point x="92" y="591" type="line"/>
      <point x="76" y="591" type="line"/>
    </contour>
  </outline>
</glyph>
<glyph name="L" format="2">
  <advance width="294"/>
  <unicode hex="004C"/>
  <note>
L
</note>
  <anchor x="181" y="0" name="bottom"/>
  <anchor x="159" y="296" name="center"/>
  <anchor x="82" y="591" name="top"/>
  <anchor x="215" y="495" name="topright"/>
  <outline>
    <contour>
      <point x="76" y="0" type="line"/>
      <point x="290" y="0" type="line"/>
      <point x="290" y="16" type="line"/>
      <point x="92" y="16" type="line"/>
      <point x="92" y="591" type="line"/>
      <point x="76" y="591" type="line"/>
    </contour>
  </outline>
</glyph>
<glyph name="M" format="2">
  <advance width="526"/>
  <unicode hex="004D"/>
  <note>
M
</note>
  <outline>
    <contour>
      <point x="76" y="0" type="line"/>
      <point x="92" y="0" type="line"/>
      <point x="92" y="537" type="line"/>
      <point x="256" y="0" type="line"/>
      <point x="270" y="0" type="line"/>
      <point x="434" y="537" type="line"/>
      <point x="434" y="0" type="line"/>
      <point x="450" y="0" type="line"/>
      <point x="450" y="591" type="line"/>
      <point x="434" y="591" type="line"/>
      <point x="263" y="32" type="line"/>
      <point x="93" y="591" type="line"/>
      <point x="76" y="591" type="line"/>
    </contour>
  </outline>
</glyph>
<glyph name="O" format="2">
  <advance width="415"/>
  <unicode hex="004F"/>
  <note>
O
</note>
  <anchor x="207" y="0" name="bottom"/>
  <anchor x="207" y="296" name="center"/>
  <anchor x="233" y="-3" name="ogonek"/>
  <anchor x="206" y="591" name="top"/>
  <anchor x="46" y="591" name="topleft"/>
  <anchor x="261" y="591" name="topright"/>
  <outline>
    <contour>
      <point x="206" y="-12" type="curve" smooth="yes"/>
      <point x="310" y="-12"/>
      <point x="348" y="22"/>
      <point x="348" y="118" type="curve" smooth="yes"/>
      <point x="348" y="469" type="line" smooth="yes"/>
      <point x="348" y="561"/>
      <point x="311" y="599"/>
      <point x="208" y="599" type="curve" smooth="yes"/>
      <point x="109" y="599"/>
      <point x="67" y="565"/>
      <point x="67" y="469" type="curve" smooth="yes"/>
      <point x="67" y="118" type="line" smooth="yes"/>
      <point x="67" y="20"/>
      <point x="109" y="-12"/>
    </contour>
    <contour>
      <point x="207" y="4" type="curve" smooth="yes"/>
      <point x="117" y="4"/>
      <point x="83" y="35"/>
      <point x="83" y="121" type="curve" smooth="yes"/>
      <point x="83" y="466" type="line" smooth="yes"/>
      <point x="83" y="550"/>
      <point x="115" y="583"/>
      <point x="207" y="583" type="curve" smooth="yes"/>
      <point x="300" y="583"/>
      <point x="332" y="549"/>
      <point x="332" y="466" type="curve" smooth="yes"/>
      <point x="332" y="121" type="line" smooth="yes"/>
      <point x="332" y="37"/>
      <point x="300" y="4"/>
    </contour>
  </outline>
</glyph>
<glyph name="R" format="2">
  <advance width="410"/>
  <unicode hex="0052"/>
  <note>
R
</note>
  <anchor x="209" y="0" name="bottom"/>
  <anchor x="204" y="591" name="top"/>
  <outline>
    <contour>
      <point x="76" y="0" type="line"/>
      <point x="92" y="0" type="line"/>
      <point x="92" y="287" type="line"/>
      <point x="203" y="287" type="line" smooth="yes"/>
      <point x="252" y="287"/>
      <point x="278" y="252"/>
      <point x="294" y="200" type="curve" smooth="yes"/>
      <point x="355" y="0" type="line"/>
      <point x="372" y="0" type="line"/>
      <point x="303" y="224" type="line" smooth="yes"/>
      <point x="293" y="256"/>
      <point x="269" y="288"/>
      <point x="248" y="291" type="curve"/>
      <point x="297" y="297"/>
      <point x="348" y="328"/>
      <point x="348" y="411" type="curve" smooth="yes"/>
      <point x="348" y="494" type="line" smooth="yes"/>
      <point x="348" y="566"/>
      <point x="299" y="591"/>
      <point x="242" y="591" type="curve" smooth="yes"/>
      <point x="76" y="591" type="line"/>
    </contour>
    <contour>
      <point x="92" y="303" type="line"/>
      <point x="92" y="575" type="line"/>
      <point x="246" y="575" type="line" smooth="yes"/>
      <point x="291" y="575"/>
      <point x="332" y="548"/>
      <point x="332" y="491" type="curve" smooth="yes"/>
      <point x="332" y="409" type="line" smooth="yes"/>
      <point x="332" y="331"/>
      <point x="281" y="303"/>
      <point x="213" y="303" type="curve" smooth="yes"/>
    </contour>
  </outline>
</glyph>
<glyph name="S" format="2">
  <advance width="346"/>
  <unicode hex="0053"/>
  <note>
S
</note>
  <anchor x="171" y="0" name="bottom"/>
  <anchor x="171" y="591" name="top"/>
  <outline>
    <contour>
      <point x="167" y="-9" type="curve" smooth="yes"/>
      <point x="244" y="-9"/>
      <point x="306" y="31"/>
      <point x="306" y="146" type="curve" smooth="yes"/>
      <point x="306" y="249"/>
      <point x="266" y="272"/>
      <point x="170" y="310" type="curve" smooth="yes"/>
      <point x="111" y="333"/>
      <point x="59" y="356"/>
      <point x="59" y="448" type="curve" smooth="yes"/>
      <point x="59" y="523"/>
      <point x="88" y="579"/>
      <point x="171" y="579" type="curve" smooth="yes"/>
      <point x="243" y="579"/>
      <point x="285" y="537"/>
      <point x="285" y="465" type="curve" smooth="yes"/>
      <point x="285" y="429" type="line"/>
      <point x="301" y="429" type="line"/>
      <point x="301" y="469" type="line" smooth="yes"/>
      <point x="301" y="549"/>
      <point x="251" y="595"/>
      <point x="171" y="595" type="curve" smooth="yes"/>
      <point x="79" y="595"/>
      <point x="43" y="537"/>
      <point x="43" y="448" type="curve" smooth="yes"/>
      <point x="43" y="354"/>
      <point x="89" y="324"/>
      <point x="161" y="296" type="curve" smooth="yes"/>
      <point x="231" y="269"/>
      <point x="290" y="250"/>
      <point x="290" y="146" type="curve" smooth="yes"/>
      <point x="290" y="42"/>
      <point x="237" y="7"/>
      <point x="167" y="7" type="curve" smooth="yes"/>
      <point x="103" y="7"/>
      <point x="56" y="42"/>
      <point x="56" y="163" type="curve" smooth="yes"/>
      <point x="56" y="175" type="line"/>
      <point x="40" y="175" type="line"/>
      <point x="40" y="163" type="line" smooth="yes"/>
      <point x="40" y="32"/>
      <point x="90" y="-9"/>
    </contour>
  </outline>
</glyph>
<glyph name="T" format="2">
  <advance width="261"/>
  <unicode hex="0054"/>
  <note>
T
</note>
  <anchor x="129" y="0" name="bottom"/>
  <anchor x="129" y="395" name="center"/>
  <anchor x="129" y="591" name="top"/>
  <outline>
    <contour>
      <point x="122" y="0" type="line"/>
      <point x="138" y="0" type="line"/>
      <point x="138" y="575" type="line"/>
      <point x="250" y="575" type="line"/>
      <point x="250" y="591" type="line"/>
      <point x="11" y="591" type="line"/>
      <point x="11" y="575" type="line"/>
      <point x="122" y="575" type="line"/>
    </contour>
  </outline>
</glyph>
<glyph name="U" format="2">
  <advance width="429"/>
  <unicode hex="0055"/>
  <note>
U
</note>
  <anchor x="209" y="0" name="bottom"/>
  <anchor x="232" y="0" name="ogonek"/>
  <anchor x="215" y="591" name="top"/>
  <anchor x="349" y="591" name="topright"/>
  <outline>
    <contour>
      <point x="209" y="-9" type="curve" smooth="yes"/>
      <point x="285" y="-9"/>
      <point x="355" y="9"/>
      <point x="355" y="113" type="curve" smooth="yes"/>
      <point x="355" y="591" type="line"/>
      <point x="339" y="591" type="line"/>
      <point x="339" y="116" type="line" smooth="yes"/>
      <point x="339" y="24"/>
      <point x="270" y="7"/>
      <point x="209" y="7" type="curve" smooth="yes"/>
      <point x="148" y="7"/>
      <point x="90" y="24"/>
      <point x="90" y="116" type="curve" smooth="yes"/>
      <point x="90" y="591" type="line"/>
      <point x="74" y="591" type="line"/>
      <point x="74" y="113" type="line" smooth="yes"/>
      <point x="74" y="9"/>
      <point x="134" y="-9"/>
    </contour>
  </outline>
</glyph>
<glyph name="V" format="2">
  <advance width="308"/>
  <unicode hex="0056"/>
  <note>
V
</note>
  <outline>
    <contour>
      <point x="150" y="0" type="line"/>
      <point x="163" y="0" type="line"/>
      <point x="285" y="591" type="line"/>
      <point x="269" y="591" type="line"/>
      <point x="157" y="44" type="line"/>
      <point x="39" y="591" type="line"/>
      <point x="23" y="591" type="line"/>
    </contour>
  </outline>
</glyph>
<glyph name="W" format="2">
  <advance width="513"/>
  <unicode hex="0057"/>
  <note>
W
</note>
  <anchor x="259" y="0" name="bottom"/>
  <anchor x="259" y="591" name="top"/>
  <outline>
    <contour>
      <point x="123" y="0" type="line"/>
      <point x="139" y="0" type="line"/>
      <point x="256" y="553" type="line"/>
      <point x="369" y="0" type="line"/>
      <point x="388" y="0" type="line"/>
      <point x="490" y="591" type="line"/>
      <point x="474" y="591" type="line"/>
      <point x="378" y="35" type="line"/>
      <point x="264" y="591" type="line"/>
      <point x="248" y="591" type="line"/>
      <point x="132" y="45" type="line"/>
      <point x="39" y="591" type="line"/>
      <point x="23" y="591" type="line"/>
    </contour>
  </outline>
</glyph>
<glyph name="X" format="2">
  <advance width="300"/>
  <unicode hex="0058"/>
  <note>
X
</note>
  <outline>
    <contour>
      <point x="26" y="0" type="line"/>
      <point x="43" y="0" type="line"/>
      <point x="142" y="290" type="line"/>
      <point x="158" y="290" type="line"/>
      <point x="254" y="0" type="line"/>
      <point x="272" y="0" type="line"/>
      <point x="172" y="298" type="line"/>
      <point x="274" y="591" type="line"/>
      <point x="257" y="591" type="line"/>
      <point x="158" y="306" type="line"/>
      <point x="141" y="306" type="line"/>
      <point x="53" y="591" type="line"/>
      <point x="37" y="591" type="line"/>
      <point x="127" y="298" type="line"/>
    </contour>
  </outline>
</glyph>
<glyph name="a" format="2">
  <advance width="354"/>
  <unicode hex="0061"/>
  <note>
a
</note>
  <anchor x="181" y="0" name="bottom"/>
  <anchor x="293" y="0" name="ogonek"/>
  <anchor x="181" y="495" name="top"/>
  <outline>
    <contour>
      <point x="160" y="-4" type="curve" smooth="yes"/>
      <point x="220" y="-4"/>
      <point x="262" y="26"/>
      <point x="278" y="73" type="curve"/>
      <point x="278" y="0" type="line"/>
      <point x="293" y="0" type="line"/>
      <point x="293" y="402" type="line" smooth="yes"/>
      <point x="293" y="455"/>
      <point x="289" y="502"/>
      <point x="181" y="502" type="curve" smooth="yes"/>
      <point x="88" y="502"/>
      <point x="65" y="454"/>
      <point x="65" y="377" type="curve" smooth="yes"/>
      <point x="65" y="334" type="line"/>
      <point x="81" y="334" type="line"/>
      <point x="81" y="375" type="line" smooth="yes"/>
      <point x="81" y="437"/>
      <point x="93" y="486"/>
      <point x="181" y="486" type="curve" smooth="yes"/>
      <point x="227" y="486"/>
      <point x="277" y="481"/>
      <point x="277" y="414" type="curve" smooth="yes"/>
      <point x="277" y="400" type="line" smooth="yes"/>
      <point x="277" y="350"/>
      <point x="251" y="329"/>
      <point x="172" y="285" type="curve" smooth="yes"/>
      <point x="147" y="271"/>
      <point x="54" y="232"/>
      <point x="54" y="146" type="curve" smooth="yes"/>
      <point x="54" y="112" type="line" smooth="yes"/>
      <point x="54" y="10"/>
      <point x="114" y="-4"/>
    </contour>
    <contour>
      <point x="163" y="12" type="curve" smooth="yes"/>
      <point x="124" y="12"/>
      <point x="70" y="18"/>
      <point x="70" y="112" type="curve" smooth="yes"/>
      <point x="70" y="138" type="line" smooth="yes"/>
      <point x="70" y="214"/>
      <point x="127" y="241"/>
      <point x="177" y="269" type="curve" smooth="yes"/>
      <point x="216" y="291"/>
      <point x="256" y="312"/>
      <point x="277" y="341" type="curve"/>
      <point x="277" y="157" type="line" smooth="yes"/>
      <point x="277" y="75"/>
      <point x="250" y="12"/>
    </contour>
  </outline>
</glyph>
<glyph name="k" format="2">
  <advance width="298"/>
  <unicode hex="006B"/>
  <note>
k
</note>
  <anchor x="166" y="0" name="bottom"/>
  <anchor x="153" y="630" name="top"/>
  <outline>
    <contour>
      <point x="68" y="0" type="line"/>
      <point x="84" y="0" type="line"/>
      <point x="84" y="280" type="line"/>
      <point x="121" y="280" type="line"/>
      <point x="267" y="0" type="line"/>
      <point x="284" y="0" type="line"/>
      <point x="135" y="287" type="line"/>
      <point x="278" y="495" type="line"/>
      <point x="259" y="495" type="line"/>
      <point x="122" y="296" type="line"/>
      <point x="84" y="296" type="line"/>
      <point x="84" y="630" type="line"/>
      <point x="68" y="630" type="line"/>
    </contour>
  </outline>
</glyph>
<glyph name="l" format="2">
  <advance width="152"/>
  <unicode hex="006C"/>
  <note>
l
</note>
  <anchor x="77" y="0" name="bottom"/>
  <anchor x="77" y="315" name="center"/>
  <anchor x="77" y="630" name="top"/>
  <anchor x="120" y="516" name="topright"/>
  <outline>
    <contour>
      <point x="68" y="0" type="line"/>
      <point x="84" y="0" type="line"/>
      <point x="84" y="630" type="line"/>
      <point x="68" y="630" type="line"/>
    </contour>
  </outline>
</glyph>
<glyph name="n" format="2">
  <advance width="373"/>
  <unicode hex="006E"/>
  <note>
n
</note>
  <anchor x="190" y="0" name="bottom"/>
  <anchor x="190" y="495" name="top"/>
  <outline>
    <contour>
      <point x="68" y="0" type="line"/>
      <point x="84" y="0" type="line"/>
      <point x="84" y="384" type="line" smooth="yes"/>
      <point x="84" y="441"/>
      <point x="119" y="487"/>
      <point x="193" y="487" type="curve" smooth="yes"/>
      <point x="293" y="487"/>
      <point x="296" y="422"/>
      <point x="296" y="363" type="curve" smooth="yes"/>
      <point x="296" y="0" type="line"/>
      <point x="312" y="0" type="line"/>
      <point x="312" y="372" type="line" smooth="yes"/>
      <point x="312" y="433"/>
      <point x="306" y="503"/>
      <point x="193" y="503" type="curve" smooth="yes"/>
      <point x="130" y="503"/>
      <point x="99" y="474"/>
      <point x="84" y="443" type="curve"/>
      <point x="82" y="495" type="line"/>
      <point x="68" y="495" type="line"/>
    </contour>
  </outline>
</glyph>
<glyph name="p" format="2">
  <advance width="366"/>
  <unicode hex="0070"/>
  <note>
p
</note>
  <outline>
    <contour>
      <point x="68" y="-116" type="line"/>
      <point x="84" y="-116" type="line"/>
      <point x="84" y="38" type="line"/>
      <point x="92" y="16"/>
      <point x="121" y="-7"/>
      <point x="188" y="-7" type="curve" smooth="yes"/>
      <point x="301" y="-7"/>
      <point x="307" y="62"/>
      <point x="307" y="124" type="curve" smooth="yes"/>
      <point x="307" y="372" type="line" smooth="yes"/>
      <point x="307" y="433"/>
      <point x="301" y="503"/>
      <point x="188" y="503" type="curve" smooth="yes"/>
      <point x="119" y="503"/>
      <point x="91" y="471"/>
      <point x="84" y="445" type="curve"/>
      <point x="82" y="495" type="line"/>
      <point x="68" y="495" type="line"/>
    </contour>
    <contour>
      <point x="188" y="9" type="curve" smooth="yes"/>
      <point x="84" y="9"/>
      <point x="84" y="74"/>
      <point x="84" y="127" type="curve" smooth="yes"/>
      <point x="84" y="363" type="line" smooth="yes"/>
      <point x="84" y="428"/>
      <point x="92" y="487"/>
      <point x="188" y="487" type="curve" smooth="yes"/>
      <point x="291" y="487"/>
      <point x="291" y="428"/>
      <point x="291" y="369" type="curve" smooth="yes"/>
      <point x="291" y="127" type="line" smooth="yes"/>
      <point x="291" y="74"/>
      <point x="291" y="9"/>
    </contour>
  </outline>
</glyph>
<glyph name="q" format="2">
  <advance width="366"/>
  <unicode hex="0071"/>
  <note>
q
</note>
  <outline>
    <contour>
      <point x="282" y="-116" type="line"/>
      <point x="298" y="-116" type="line"/>
      <point x="298" y="495" type="line"/>
      <point x="284" y="495" type="line"/>
      <point x="282" y="445" type="line"/>
      <point x="275" y="471"/>
      <point x="247" y="503"/>
      <point x="178" y="503" type="curve" smooth="yes"/>
      <point x="65" y="503"/>
      <point x="59" y="433"/>
      <point x="59" y="372" type="curve" smooth="yes"/>
      <point x="59" y="124" type="line" smooth="yes"/>
      <point x="59" y="62"/>
      <point x="65" y="-7"/>
      <point x="178" y="-7" type="curve" smooth="yes"/>
      <point x="245" y="-7"/>
      <point x="274" y="16"/>
      <point x="282" y="38" type="curve"/>
    </contour>
    <contour>
      <point x="178" y="9" type="curve" smooth="yes"/>
      <point x="75" y="9"/>
      <point x="75" y="74"/>
      <point x="75" y="127" type="curve" smooth="yes"/>
      <point x="75" y="369" type="line" smooth="yes"/>
      <point x="75" y="428"/>
      <point x="75" y="487"/>
      <point x="178" y="487" type="curve" smooth="yes"/>
      <point x="274" y="487"/>
      <point x="282" y="428"/>
      <point x="282" y="363" type="curve" smooth="yes"/>
      <point x="282" y="127" type="line" smooth="yes"/>
      <point x="282" y="74"/>
      <point x="282" y="9"/>
    </contour>
  </outline>
</glyph>
<glyph name="r" format="2">
  <advance width="229"/>
  <unicode hex="0072"/>
  <note>
r
</note>
  <anchor x="75" y="0" name="bottom"/>
  <anchor x="138" y="495" name="top"/>
  <outline>
    <contour>
      <point x="68" y="0" type="line"/>
      <point x="84" y="0" type="line"/>
      <point x="84" y="389" type="line" smooth="yes"/>
      <point x="84" y="442"/>
      <point x="120" y="487"/>
      <point x="193" y="487" type="curve" smooth="yes"/>
      <point x="207" y="487"/>
      <point x="219" y="486"/>
      <point x="230" y="484" type="curve"/>
      <point x="230" y="500" type="line"/>
      <point x="219" y="502"/>
      <point x="207" y="503"/>
      <point x="193" y="503" type="curve" smooth="yes"/>
      <point x="130" y="503"/>
      <point x="99" y="476"/>
      <point x="84" y="445" type="curve"/>
      <point x="82" y="495" type="line"/>
      <point x="68" y="495" type="line"/>
    </contour>
  </outline>
</glyph>
<glyph name="w" format="2">
  <advance width="540"/>
  <unicode hex="0077"/>
  <note>
w
</note>
  <anchor x="270" y="0" name="bottom"/>
  <anchor x="270" y="495" name="top"/>
  <outline>
    <contour>
      <point x="139" y="0" type="line"/>
      <point x="157" y="0" type="line"/>
      <point x="270" y="462" type="line"/>
      <point x="382" y="0" type="line"/>
      <point x="400" y="0" type="line"/>
      <point x="521" y="495" type="line"/>
      <point x="505" y="495" type="line"/>
      <point x="391" y="27" type="line"/>
      <point x="278" y="495" type="line"/>
      <point x="262" y="495" type="line"/>
      <point x="148" y="27" type="line"/>
      <point x="35" y="495" type="line"/>
      <point x="19" y="495" type="line"/>
    </contour>
  </outline>
</glyph>
<glyph name="y" format="2">
  <advance width="298"/>
  <unicode hex="0079"/>
  <note>
y
</note>
  <anchor x="203" y="0" name="bottom"/>
  <anchor x="148" y="495" name="top"/>
  <outline>
    <contour>
      <point x="53" y="-115" type="curve" smooth="yes"/>
      <point x="113" y="-115"/>
      <point x="141" y="-70"/>
      <point x="158" y="-1" type="curve" smooth="yes"/>
      <point x="279" y="495" type="line"/>
      <point x="263" y="495" type="line"/>
      <point x="149" y="27" type="line"/>
      <point x="36" y="495" type="line"/>
      <point x="20" y="495" type="line"/>
      <point x="141" y="-4" type="line"/>
      <point x="128" y="-82"/>
      <point x="84" y="-101"/>
      <point x="53" y="-101" type="curve" smooth="yes"/>
      <point x="30" y="-101"/>
      <point x="7" y="-96"/>
      <point x="4" y="-95" type="curve"/>
      <point x="4" y="-109" type="line"/>
      <point x="7" y="-110"/>
      <point x="33" y="-115"/>
    </contour>
  </outline>
</glyph>
<glyph name="z" format="2">
  <advance width="247"/>
  <unicode hex="007A"/>
  <note>
z
</note>
  <anchor x="119" y="0" name="bottom"/>
  <anchor x="119" y="248" name="center"/>
  <anchor x="124" y="495" name="top"/>
  <outline>
    <contour>
      <point x="20" y="0" type="line"/>
      <point x="225" y="0" type="line"/>
      <point x="225" y="16" type="line"/>
      <point x="41" y="16" type="line"/>
      <point x="225" y="483" type="line"/>
      <point x="225" y="495" type="line"/>
      <point x="32" y="495" type="line"/>
      <point x="32" y="479" type="line"/>
      <point x="204" y="479" type="line"/>
      <point x="20" y="7" type="line"/>
    </contour>
  </outline>
</glyph>
<glyph name="bar" format="2">
  <advance width="176"/>
  <unicode hex="007C"/>
  <note>
bar
</note>
  <outline>
    <contour>
      <point x="80" y="-46" type="line"/>
      <point x="96" y="-46" type="line"/>
      <point x="96" y="630" type="line"/>
      <point x="80" y="630" type="line"/>
    </contour>
  </outline>
</glyph>
<glyph name="braceright" format="2">
  <advance width="274"/>
  <unicode hex="007D"/>
  <note>
braceright
</note>
  <outline>
    <contour>
      <point x="63" y="-137" type="line"/>
      <point x="121" y="-128"/>
      <point x="168" y="-95"/>
      <point x="168" y="-23" type="curve" smooth="yes"/>
      <point x="168" y="54"/>
      <point x="108" y="111"/>
      <point x="108" y="178" type="curve" smooth="yes"/>
      <point x="108" y="221"/>
      <point x="164" y="255"/>
      <point x="217" y="255" type="curve"/>
      <point x="217" y="265" type="line"/>
      <point x="164" y="268"/>
      <point x="109" y="298"/>
      <point x="109" y="353" type="curve" smooth="yes"/>
      <point x="109" y="412"/>
      <point x="167" y="460"/>
      <point x="167" y="544" type="curve" smooth="yes"/>
      <point x="167" y="617"/>
      <point x="134" y="649"/>
      <point x="63" y="665" type="curve"/>
      <point x="63" y="650" type="line"/>
      <point x="106" y="641"/>
      <point x="151" y="615"/>
      <point x="151" y="544" type="curve" smooth="yes"/>
      <point x="151" y="466"/>
      <point x="92" y="426"/>
      <point x="92" y="346" type="curve" smooth="yes"/>
      <point x="92" y="308"/>
      <point x="120" y="273"/>
      <point x="168" y="260" type="curve"/>
      <point x="121" y="249"/>
      <point x="92" y="214"/>
      <point x="92" y="172" type="curve" smooth="yes"/>
      <point x="92" y="101"/>
      <point x="151" y="51"/>
      <point x="151" y="-21" type="curve" smooth="yes"/>
      <point x="151" y="-81"/>
      <point x="117" y="-116"/>
      <point x="63" y="-123" type="curve"/>
    </contour>
  </outline>
</glyph>
<glyph name="asciitilde" format="2">
  <advance width="451"/>
  <unicode hex="007E"/>
  <note>
asciitilde
</note>
  <outline>
    <contour>
      <point x="309" y="544" type="curve" smooth="yes"/>
      <point x="362" y="544"/>
      <point x="396" y="567"/>
      <point x="401" y="606" type="curve"/>
      <point x="385" y="606" type="line"/>
      <point x="380" y="576"/>
      <point x="354" y="560"/>
      <point x="309" y="560" type="curve" smooth="yes"/>
      <point x="276" y="560"/>
      <point x="253" y="571"/>
      <point x="229" y="582" type="curve" smooth="yes"/>
      <point x="204" y="594"/>
      <point x="177" y="606"/>
      <point x="138" y="606" type="curve" smooth="yes"/>
      <point x="89" y="606"/>
      <point x="57" y="584"/>
      <point x="50" y="545" type="curve"/>
      <point x="67" y="545" type="line"/>
      <point x="73" y="574"/>
      <point x="98" y="590"/>
      <point x="138" y="590" type="curve" smooth="yes"/>
      <point x="173" y="590"/>
      <point x="197" y="579"/>
      <point x="222" y="567" type="curve" smooth="yes"/>
      <point x="247" y="556"/>
      <point x="273" y="544"/>
    </contour>
  </outline>
</glyph>
<glyph name="cent" format="2">
  <advance width="375"/>
  <unicode hex="00A2"/>
  <note>
cent
</note>
  <outline>
    <contour>
      <point x="180" y="-63" type="line"/>
      <point x="197" y="-63" type="line"/>
      <point x="197" y="53" type="line"/>
      <point x="304" y="56"/>
      <point x="311" y="123"/>
      <point x="311" y="184" type="curve" smooth="yes"/>
      <point x="311" y="227" type="line"/>
      <point x="295" y="227" type="line"/>
      <point x="295" y="187" type="line" smooth="yes"/>
      <point x="295" y="128"/>
      <point x="290" y="67"/>
      <point x="187" y="67" type="curve" smooth="yes"/>
      <point x="83" y="67"/>
      <point x="83" y="128"/>
      <point x="83" y="187" type="curve" smooth="yes"/>
      <point x="83" y="429" type="line" smooth="yes"/>
      <point x="83" y="488"/>
      <point x="88" y="549"/>
      <point x="187" y="549" type="curve" smooth="yes"/>
      <point x="290" y="549"/>
      <point x="295" y="488"/>
      <point x="295" y="429" type="curve" smooth="yes"/>
      <point x="295" y="388" type="line"/>
      <point x="311" y="388" type="line"/>
      <point x="311" y="432" type="line" smooth="yes"/>
      <point x="311" y="492"/>
      <point x="304" y="560"/>
      <point x="197" y="563" type="curve"/>
      <point x="197" y="643" type="line"/>
      <point x="181" y="643" type="line"/>
      <point x="181" y="563" type="line"/>
      <point x="72" y="563"/>
      <point x="67" y="493"/>
      <point x="67" y="432" type="curve" smooth="yes"/>
      <point x="67" y="184" type="line" smooth="yes"/>
      <point x="67" y="123"/>
      <point x="70" y="53"/>
      <point x="180" y="53" type="curve"/>
    </contour>
  </outline>
</glyph>
<glyph name="yen" format="2">
  <advance width="328"/>
  <unicode hex="00A5"/>
  <note>
yen
</note>
  <outline>
    <contour>
      <point x="149" y="0" type="line"/>
      <point x="165" y="0" type="line"/>
      <point x="165" y="135" type="line"/>
      <point x="256" y="135" type="line"/>
      <point x="256" y="151" type="line"/>
      <point x="165" y="151" type="line"/>
      <point x="165" y="244" type="line"/>
      <point x="256" y="244" type="line"/>
      <point x="256" y="260" type="line"/>
      <point x="168" y="260" type="line"/>
      <point x="288" y="591" type="line"/>
      <point x="271" y="591" type="line"/>
      <point x="158" y="275" type="line"/>
      <point x="57" y="591" type="line"/>
      <point x="40" y="591" type="line"/>
      <point x="147" y="260" type="line"/>
      <point x="57" y="260" type="line"/>
      <point x="57" y="244" type="line"/>
      <point x="149" y="244" type="line"/>
      <point x="149" y="151" type="line"/>
      <point x="57" y="151" type="line"/>
      <point x="57" y="135" type="line"/>
      <point x="149" y="135" type="line"/>
    </contour>
  </outline>
</glyph>
<glyph name="brokenbar" format="2">
  <advance width="176"/>
  <unicode hex="00A6"/>
  <note>
brokenbar
</note>
  <outline>
    <contour>
      <point x="80" y="-46" type="line"/>
      <point x="96" y="-46" type="line"/>
      <point x="96" y="268" type="line"/>
      <point x="80" y="268" type="line"/>
    </contour>
    <contour>
      <point x="80" y="341" type="line"/>
      <point x="96" y="341" type="line"/>
      <point x="96" y="630" type="line"/>
      <point x="80" y="630" type="line"/>
    </contour>
  </outline>
</glyph>
<glyph name="copyright" format="2">
  <advance width="660"/>
  <unicode hex="00A9"/>
  <note>
copyright
</note>
  <outline>
    <contour>
      <point x="330" y="31" type="curve" smooth="yes"/>
      <point x="485" y="31"/>
      <point x="610" y="156"/>
      <point x="610" y="312" type="curve" smooth="yes"/>
      <point x="610" y="466"/>
      <point x="485" y="591"/>
      <point x="330" y="591" type="curve" smooth="yes"/>
      <point x="174" y="591"/>
      <point x="50" y="466"/>
      <point x="50" y="312" type="curve" smooth="yes"/>
      <point x="50" y="156"/>
      <point x="174" y="31"/>
    </contour>
    <contour>
      <point x="330" y="46" type="curve" smooth="yes"/>
      <point x="186" y="46"/>
      <point x="66" y="168"/>
      <point x="66" y="312" type="curve" smooth="yes"/>
      <point x="66" y="457"/>
      <point x="186" y="575"/>
      <point x="330" y="575" type="curve" smooth="yes"/>
      <point x="477" y="575"/>
      <point x="593" y="457"/>
      <point x="593" y="312" type="curve" smooth="yes"/>
      <point x="593" y="168"/>
      <point x="477" y="46"/>
    </contour>
    <contour>
      <point x="323" y="178" type="curve" smooth="yes"/>
      <point x="376" y="178"/>
      <point x="412" y="194"/>
      <point x="415" y="261" type="curve"/>
      <point x="397" y="261" type="line"/>
      <point x="397" y="210"/>
      <point x="361" y="193"/>
      <point x="323" y="193" type="curve" smooth="yes"/>
      <point x="267" y="193"/>
      <point x="251" y="215"/>
      <point x="251" y="313" type="curve" smooth="yes"/>
      <point x="251" y="427"/>
      <point x="261" y="443"/>
      <point x="325" y="443" type="curve" smooth="yes"/>
      <point x="377" y="443"/>
      <point x="397" y="430"/>
      <point x="400" y="361" type="curve"/>
      <point x="415" y="361" type="line"/>
      <point x="412" y="434"/>
      <point x="392" y="457"/>
      <point x="325" y="457" type="curve" smooth="yes"/>
      <point x="246" y="457"/>
      <point x="235" y="429"/>
      <point x="235" y="312" type="curve" smooth="yes"/>
      <point x="235" y="196"/>
      <point x="261" y="178"/>
    </contour>
  </outline>
</glyph>
<glyph name="ordfeminine" format="2">
  <advance width="262"/>
  <unicode hex="00AA"/>
  <note>
ordfeminine
</note>
  <outline>
    <contour>
      <point x="123" y="288" type="curve" smooth="yes"/>
      <point x="159" y="288"/>
      <point x="186" y="305"/>
      <point x="197" y="334" type="curve"/>
      <point x="191" y="335" type="line"/>
      <point x="192" y="292" type="line"/>
      <point x="205" y="292" type="line"/>
      <point x="205" y="536" type="line" smooth="yes"/>
      <point x="205" y="568"/>
      <point x="203" y="599"/>
      <point x="135" y="599" type="curve" smooth="yes"/>
      <point x="84" y="599"/>
      <point x="63" y="576"/>
      <point x="63" y="521" type="curve" smooth="yes"/>
      <point x="63" y="492" type="line"/>
      <point x="78" y="492" type="line"/>
      <point x="78" y="520" type="line" smooth="yes"/>
      <point x="78" y="557"/>
      <point x="84" y="584"/>
      <point x="135" y="584" type="curve" smooth="yes"/>
      <point x="163" y="584"/>
      <point x="190" y="581"/>
      <point x="190" y="543" type="curve" smooth="yes"/>
      <point x="190" y="535" type="line" smooth="yes"/>
      <point x="190" y="508"/>
      <point x="178" y="496"/>
      <point x="129" y="469" type="curve" smooth="yes"/>
      <point x="114" y="461"/>
      <point x="56" y="436"/>
      <point x="56" y="383" type="curve" smooth="yes"/>
      <point x="56" y="362" type="line" smooth="yes"/>
      <point x="56" y="290"/>
      <point x="95" y="288"/>
    </contour>
    <contour>
      <point x="120" y="303" type="curve" smooth="yes"/>
      <point x="98" y="303"/>
      <point x="72" y="305"/>
      <point x="72" y="362" type="curve" smooth="yes"/>
      <point x="72" y="378" type="line" smooth="yes"/>
      <point x="72" y="420"/>
      <point x="96" y="433"/>
      <point x="142" y="458" type="curve" smooth="yes"/>
      <point x="163" y="469"/>
      <point x="178" y="480"/>
      <point x="189" y="492" type="curve"/>
      <point x="189" y="389" type="line" smooth="yes"/>
      <point x="189" y="328"/>
      <point x="167" y="303"/>
    </contour>
  </outline>
</glyph>
<glyph name="guillemetleft" format="2">
  <advance width="414"/>
  <unicode hex="00AB"/>
  <note>
guillemotleft
</note>
  <outline>
    <contour>
      <point x="348" y="115" type="line"/>
      <point x="362" y="115" type="line"/>
      <point x="248" y="284" type="line"/>
      <point x="374" y="468" type="line"/>
      <point x="360" y="468" type="line"/>
      <point x="230" y="284" type="line"/>
    </contour>
    <contour>
      <point x="168" y="115" type="line"/>
      <point x="182" y="115" type="line"/>
      <point x="68" y="284" type="line"/>
      <point x="194" y="468" type="line"/>
      <point x="180" y="468" type="line"/>
      <point x="50" y="284" type="line"/>
    </contour>
  </outline>
</glyph>
<glyph name="logicalnot" format="2">
  <advance width="555"/>
  <unicode hex="00AC"/>
  <note>
logicalnot
</note>
  <outline>
    <contour>
      <point x="489" y="215" type="line"/>
      <point x="505" y="215" type="line"/>
      <point x="505" y="400" type="line"/>
      <point x="50" y="400" type="line"/>
      <point x="50" y="384" type="line"/>
      <point x="489" y="384" type="line"/>
    </contour>
  </outline>
</glyph>
<glyph name="registered" format="2">
  <advance width="412"/>
  <unicode hex="00AE"/>
  <note>
registered
</note>
  <outline>
    <contour>
      <point x="206" y="279" type="curve" smooth="yes"/>
      <point x="293" y="279"/>
      <point x="362" y="348"/>
      <point x="362" y="435" type="curve" smooth="yes"/>
      <point x="362" y="521"/>
      <point x="293" y="591"/>
      <point x="206" y="591" type="curve" smooth="yes"/>
      <point x="120" y="591"/>
      <point x="50" y="521"/>
      <point x="50" y="435" type="curve" smooth="yes"/>
      <point x="50" y="348"/>
      <point x="120" y="279"/>
    </contour>
    <contour>
      <point x="206" y="290" type="curve" smooth="yes"/>
      <point x="129" y="290"/>
      <point x="64" y="357"/>
      <point x="64" y="435" type="curve" smooth="yes"/>
      <point x="64" y="515"/>
      <point x="129" y="579"/>
      <point x="206" y="579" type="curve" smooth="yes"/>
      <point x="286" y="579"/>
      <point x="349" y="515"/>
      <point x="349" y="435" type="curve" smooth="yes"/>
      <point x="349" y="357"/>
      <point x="286" y="290"/>
    </contour>
    <contour>
      <point x="161" y="353" type="line"/>
      <point x="174" y="353" type="line"/>
      <point x="174" y="435" type="line"/>
      <point x="199" y="435" type="line" smooth="yes"/>
      <point x="209" y="435"/>
      <point x="215" y="433"/>
      <point x="220" y="424" type="curve" smooth="yes"/>
      <point x="230" y="406"/>
      <point x="245" y="372"/>
      <point x="253" y="353" type="curve"/>
      <point x="268" y="353" type="line"/>
      <point x="243" y="407" type="line" smooth="yes"/>
      <point x="240" y="413"/>
      <point x="233" y="433"/>
      <point x="222" y="438" type="curve"/>
      <point x="257" y="442"/>
      <point x="262" y="464"/>
      <point x="262" y="486" type="curve" smooth="yes"/>
      <point x="262" y="508"/>
      <point x="254" y="524"/>
      <point x="226" y="524" type="curve" smooth="yes"/>
      <point x="161" y="524" type="line"/>
    </contour>
    <contour>
      <point x="174" y="447" type="line"/>
      <point x="174" y="513" type="line"/>
      <point x="220" y="513" type="line" smooth="yes"/>
      <point x="241" y="513"/>
      <point x="250" y="504"/>
      <point x="250" y="485" type="curve" smooth="yes"/>
      <point x="250" y="459"/>
      <point x="241" y="447"/>
      <point x="202" y="447" type="curve" smooth="yes"/>
    </contour>
  </outline>
</glyph>
<glyph name="degree" format="2">
  <advance width="288"/>
  <unicode hex="00B0"/>
  <note>
degree
</note>
  <outline>
    <contour>
      <point x="144" y="410" type="curve" smooth="yes"/>
      <point x="203" y="410"/>
      <point x="238" y="444"/>
      <point x="238" y="503" type="curve" smooth="yes"/>
      <point x="238" y="561"/>
      <point x="204" y="594"/>
      <point x="146" y="594" type="curve" smooth="yes"/>
      <point x="85" y="594"/>
      <point x="50" y="560"/>
      <point x="50" y="501" type="curve" smooth="yes"/>
      <point x="50" y="444"/>
      <point x="85" y="410"/>
    </contour>
    <contour>
      <point x="143" y="426" type="curve" smooth="yes"/>
      <point x="95" y="426"/>
      <point x="66" y="454"/>
      <point x="66" y="501" type="curve" smooth="yes"/>
      <point x="66" y="550"/>
      <point x="94" y="578"/>
      <point x="145" y="578" type="curve" smooth="yes"/>
      <point x="195" y="578"/>
      <point x="222" y="550"/>
      <point x="222" y="502" type="curve" smooth="yes"/>
      <point x="222" y="453"/>
      <point x="195" y="426"/>
    </contour>
  </outline>
</glyph>
<glyph name="twosuperior" format="2">
  <advance width="271"/>
  <unicode hex="00B2"/>
  <note>
twosuperior
</note>
  <outline>
    <contour>
      <point x="56" y="237" type="line"/>
      <point x="221" y="237" type="line"/>
      <point x="221" y="252" type="line"/>
      <point x="72" y="252" type="line"/>
      <point x="72" y="301" type="line" smooth="yes"/>
      <point x="72" y="340"/>
      <point x="90" y="359"/>
      <point x="120" y="376" type="curve"/>
      <point x="125" y="378"/>
      <point x="155" y="395"/>
      <point x="169" y="403" type="curve" smooth="yes"/>
      <point x="199" y="420"/>
      <point x="218" y="455"/>
      <point x="218" y="505" type="curve" smooth="yes"/>
      <point x="218" y="561"/>
      <point x="194" y="593"/>
      <point x="133" y="593" type="curve" smooth="yes"/>
      <point x="81" y="593"/>
      <point x="50" y="566"/>
      <point x="50" y="510" type="curve" smooth="yes"/>
      <point x="50" y="478" type="line"/>
      <point x="66" y="478" type="line"/>
      <point x="66" y="516" type="line" smooth="yes"/>
      <point x="66" y="556"/>
      <point x="93" y="579"/>
      <point x="133" y="579" type="curve" smooth="yes"/>
      <point x="180" y="579"/>
      <point x="202" y="550"/>
      <point x="202" y="510" type="curve" smooth="yes"/>
      <point x="202" y="498" type="line" smooth="yes"/>
      <point x="202" y="462"/>
      <point x="188" y="434"/>
      <point x="159" y="416" type="curve" smooth="yes"/>
      <point x="146" y="408"/>
      <point x="115" y="391"/>
      <point x="108" y="387" type="curve" smooth="yes"/>
      <point x="75" y="368"/>
      <point x="56" y="349"/>
      <point x="56" y="301" type="curve" smooth="yes"/>
    </contour>
  </outline>
</glyph>
<glyph name="micro" format="2">
  <advance width="376"/>
  <unicode hex="00B5"/>
  <note>
mu
</note>
  <outline>
    <contour>
      <point x="68" y="-129" type="line"/>
      <point x="84" y="-129" type="line"/>
      <point x="84" y="50" type="line"/>
      <point x="88" y="28"/>
      <point x="121" y="-7"/>
      <point x="192" y="-7" type="curve" smooth="yes"/>
      <point x="274" y="-7"/>
      <point x="308" y="50"/>
      <point x="308" y="132" type="curve" smooth="yes"/>
      <point x="308" y="495" type="line"/>
      <point x="292" y="495" type="line"/>
      <point x="292" y="120" type="line" smooth="yes"/>
      <point x="292" y="60"/>
      <point x="260" y="9"/>
      <point x="193" y="9" type="curve" smooth="yes"/>
      <point x="116" y="9"/>
      <point x="84" y="60"/>
      <point x="84" y="120" type="curve" smooth="yes"/>
      <point x="84" y="495" type="line"/>
      <point x="68" y="495" type="line"/>
    </contour>
  </outline>
</glyph>
<glyph name="questiondown" format="2">
  <advance width="368"/>
  <unicode hex="00BF"/>
  <note>
questiondown
</note>
  <outline>
    <contour>
      <point x="186" y="-151" type="curve" smooth="yes"/>
      <point x="267" y="-151"/>
      <point x="308" y="-105"/>
      <point x="308" y="-14" type="curve" smooth="yes"/>
      <point x="308" y="15" type="line"/>
      <point x="292" y="15" type="line"/>
      <point x="292" y="-18" type="line" smooth="yes"/>
      <point x="292" y="-94"/>
      <point x="254" y="-135"/>
      <point x="184" y="-135" type="curve" smooth="yes"/>
      <point x="103" y="-135"/>
      <point x="63" y="-90"/>
      <point x="63" y="-7" type="curve" smooth="yes"/>
      <point x="63" y="58" type="line" smooth="yes"/>
      <point x="63" y="144"/>
      <point x="131" y="178"/>
      <point x="178" y="178" type="curve" smooth="yes"/>
      <point x="237" y="178" type="line"/>
      <point x="237" y="300" type="line"/>
      <point x="221" y="300" type="line"/>
      <point x="221" y="194" type="line"/>
      <point x="174" y="194" type="line" smooth="yes"/>
      <point x="123" y="194"/>
      <point x="47" y="159"/>
      <point x="47" y="66" type="curve" smooth="yes"/>
      <point x="47" y="-5" type="line" smooth="yes"/>
      <point x="47" y="-106"/>
      <point x="88" y="-151"/>
    </contour>
    <contour>
      <point x="226" y="415" type="curve" smooth="yes"/>
      <point x="237" y="415"/>
      <point x="242" y="420"/>
      <point x="242" y="431" type="curve" smooth="yes"/>
      <point x="242" y="442"/>
      <point x="237" y="447"/>
      <point x="226" y="447" type="curve" smooth="yes"/>
      <point x="215" y="447"/>
      <point x="210" y="442"/>
      <point x="210" y="431" type="curve" smooth="yes"/>
      <point x="210" y="420"/>
      <point x="215" y="415"/>
    </contour>
  </outline>
</glyph>
<glyph name="AE" format="2">
  <advance width="501"/>
  <unicode hex="00C6"/>
  <note>
AE
</note>
  <anchor x="241" y="0" name="bottom"/>
  <anchor x="280" y="591" name="top"/>
  <outline>
    <contour>
      <point x="2" y="0" type="line"/>
      <point x="20" y="0" type="line"/>
      <point x="81" y="160" type="line"/>
      <point x="294" y="160" type="line"/>
      <point x="292" y="176" type="line"/>
      <point x="87" y="176" type="line"/>
      <point x="242" y="588" type="line"/>
      <point x="226" y="591" type="line"/>
    </contour>
    <contour>
      <point x="309" y="0" type="line"/>
      <point x="483" y="0" type="line"/>
      <point x="483" y="16" type="line"/>
      <point x="323" y="16" type="line"/>
      <point x="283" y="303" type="line"/>
      <point x="432" y="303" type="line"/>
      <point x="432" y="319" type="line"/>
      <point x="281" y="319" type="line"/>
      <point x="245" y="575" type="line"/>
      <point x="423" y="575" type="line"/>
      <point x="423" y="591" type="line"/>
      <point x="226" y="591" type="line"/>
    </contour>
  </outline>
</glyph>
<glyph name="multiply" format="2">
  <advance width="318"/>
  <unicode hex="00D7"/>
  <note>
multiply
</note>
  <outline>
    <contour>
      <point x="60.175" y="163.1" type="line"/>
      <point x="71.488" y="151.787" type="line"/>
      <point x="159.17" y="239.468" type="line"/>
      <point x="246.852" y="151.787" type="line"/>
      <point x="258.166" y="163.1" type="line"/>
      <point x="170.484" y="250.782" type="line"/>
      <point x="258.166" y="338.464" type="line"/>
      <point x="246.852" y="349.777" type="line"/>
      <point x="159.17" y="262.096" type="line"/>
      <point x="71.489" y="349.778" type="line"/>
      <point x="60.175" y="338.464" type="line"/>
      <point x="147.856" y="250.782" type="line"/>
    </contour>
  </outline>
</glyph>
<glyph name="Thorn" format="2">
  <advance width="383"/>
  <unicode hex="00DE"/>
  <note>
Thorn
</note>
  <outline>
    <contour>
      <point x="76" y="0" type="line"/>
      <point x="92" y="0" type="line"/>
      <point x="92" y="151" type="line"/>
      <point x="226" y="151" type="line" smooth="yes"/>
      <point x="320" y="151"/>
      <point x="346" y="211"/>
      <point x="346" y="270" type="curve" smooth="yes"/>
      <point x="346" y="374" type="line" smooth="yes"/>
      <point x="346" y="446"/>
      <point x="297" y="471"/>
      <point x="240" y="471" type="curve" smooth="yes"/>
      <point x="92" y="471" type="line"/>
      <point x="92" y="591" type="line"/>
      <point x="76" y="591" type="line"/>
    </contour>
    <contour>
      <point x="92" y="167" type="line"/>
      <point x="92" y="455" type="line"/>
      <point x="244" y="455" type="line" smooth="yes"/>
      <point x="289" y="455"/>
      <point x="330" y="428"/>
      <point x="330" y="371" type="curve" smooth="yes"/>
      <point x="330" y="270" type="line" smooth="yes"/>
      <point x="330" y="197"/>
      <point x="287" y="167"/>
      <point x="222" y="167" type="curve" smooth="yes"/>
    </contour>
  </outline>
</glyph>
<glyph name="germandbls" format="2">
  <advance width="381"/>
  <unicode hex="00DF"/>
  <note>
germandbls
</note>
  <outline>
    <contour>
      <point x="14" y="-146" type="curve" smooth="yes"/>
      <point x="67" y="-146"/>
      <point x="86" y="-115"/>
      <point x="86" y="-60" type="curve" smooth="yes"/>
      <point x="86" y="528" type="line" smooth="yes"/>
      <point x="86" y="575"/>
      <point x="95" y="617"/>
      <point x="190" y="617" type="curve" smooth="yes"/>
      <point x="262" y="617"/>
      <point x="295" y="592"/>
      <point x="295" y="531" type="curve" smooth="yes"/>
      <point x="295" y="433" type="line" smooth="yes"/>
      <point x="295" y="385"/>
      <point x="263" y="349"/>
      <point x="204" y="349" type="curve" smooth="yes"/>
      <point x="150" y="349" type="line"/>
      <point x="150" y="333" type="line"/>
      <point x="193" y="333" type="line" smooth="yes"/>
      <point x="253" y="333"/>
      <point x="307" y="309"/>
      <point x="307" y="239" type="curve" smooth="yes"/>
      <point x="307" y="123" type="line" smooth="yes"/>
      <point x="307" y="31"/>
      <point x="266" y="16"/>
      <point x="207" y="16" type="curve" smooth="yes"/>
      <point x="130" y="16" type="line"/>
      <point x="130" y="0" type="line"/>
      <point x="207" y="0" type="line" smooth="yes"/>
      <point x="272" y="0"/>
      <point x="323" y="15"/>
      <point x="323" y="119" type="curve" smooth="yes"/>
      <point x="323" y="244" type="line" smooth="yes"/>
      <point x="323" y="300"/>
      <point x="282" y="335"/>
      <point x="236" y="341" type="curve"/>
      <point x="236" y="342" type="line"/>
      <point x="279" y="346"/>
      <point x="312" y="385"/>
      <point x="312" y="429" type="curve" smooth="yes"/>
      <point x="312" y="538" type="line" smooth="yes"/>
      <point x="312" y="610"/>
      <point x="265" y="633"/>
      <point x="190" y="633" type="curve" smooth="yes"/>
      <point x="93" y="633"/>
      <point x="70" y="599"/>
      <point x="70" y="527" type="curve" smooth="yes"/>
      <point x="70" y="457" type="line"/>
      <point x="39" y="457" type="line"/>
      <point x="39" y="441" type="line"/>
      <point x="70" y="441" type="line"/>
      <point x="70" y="-55" type="line" smooth="yes"/>
      <point x="70" y="-104"/>
      <point x="60" y="-131"/>
      <point x="8" y="-131" type="curve" smooth="yes"/>
      <point x="-4" y="-131"/>
      <point x="-19" y="-131"/>
      <point x="-32" y="-130" type="curve" smooth="yes"/>
      <point x="-54" y="-128" type="line"/>
      <point x="-54" y="-143" type="line"/>
      <point x="-43" y="-144"/>
      <point x="-10" y="-146"/>
    </contour>
  </outline>
</glyph>
<glyph name="ae" format="2">
  <advance width="573"/>
  <unicode hex="00E6"/>
  <note>
ae
</note>
  <anchor x="282" y="0" name="bottom"/>
  <anchor x="465" y="6" name="ogonek"/>
  <anchor x="299" y="493" name="top"/>
  <outline>
    <contour>
      <point x="397" y="-7" type="curve" smooth="yes"/>
      <point x="510" y="-7"/>
      <point x="516" y="62"/>
      <point x="516" y="124" type="curve" smooth="yes"/>
      <point x="516" y="167" type="line"/>
      <point x="500" y="167" type="line"/>
      <point x="500" y="127" type="line" smooth="yes"/>
      <point x="500" y="66"/>
      <point x="495" y="9"/>
      <point x="397" y="9" type="curve" smooth="yes"/>
      <point x="298" y="9"/>
      <point x="293" y="68"/>
      <point x="293" y="127" type="curve" smooth="yes"/>
      <point x="293" y="263" type="line"/>
      <point x="516" y="263" type="line"/>
      <point x="516" y="372" type="line" smooth="yes"/>
      <point x="516" y="438"/>
      <point x="508" y="503"/>
      <point x="397" y="503" type="curve" smooth="yes"/>
      <point x="333" y="503"/>
      <point x="303" y="480"/>
      <point x="289" y="448" type="curve"/>
      <point x="281" y="480"/>
      <point x="256" y="502"/>
      <point x="181" y="502" type="curve" smooth="yes"/>
      <point x="88" y="502"/>
      <point x="65" y="454"/>
      <point x="65" y="377" type="curve" smooth="yes"/>
      <point x="65" y="334" type="line"/>
      <point x="81" y="334" type="line"/>
      <point x="81" y="375" type="line" smooth="yes"/>
      <point x="81" y="437"/>
      <point x="93" y="486"/>
      <point x="181" y="486" type="curve" smooth="yes"/>
      <point x="227" y="486"/>
      <point x="277" y="481"/>
      <point x="277" y="414" type="curve" smooth="yes"/>
      <point x="277" y="400" type="line" smooth="yes"/>
      <point x="277" y="350"/>
      <point x="251" y="329"/>
      <point x="172" y="285" type="curve" smooth="yes"/>
      <point x="147" y="271"/>
      <point x="54" y="232"/>
      <point x="54" y="146" type="curve" smooth="yes"/>
      <point x="54" y="112" type="line" smooth="yes"/>
      <point x="54" y="10"/>
      <point x="114" y="-4"/>
      <point x="160" y="-4" type="curve" smooth="yes"/>
      <point x="220" y="-4"/>
      <point x="262" y="26"/>
      <point x="278" y="73" type="curve"/>
      <point x="278" y="0" type="line"/>
      <point x="293" y="0" type="line"/>
      <point x="293" y="37" type="line"/>
      <point x="308" y="11"/>
      <point x="338" y="-7"/>
    </contour>
    <contour>
      <point x="163" y="12" type="curve" smooth="yes"/>
      <point x="124" y="12"/>
      <point x="70" y="18"/>
      <point x="70" y="112" type="curve" smooth="yes"/>
      <point x="70" y="138" type="line" smooth="yes"/>
      <point x="70" y="214"/>
      <point x="127" y="241"/>
      <point x="177" y="269" type="curve" smooth="yes"/>
      <point x="216" y="291"/>
      <point x="256" y="312"/>
      <point x="277" y="341" type="curve"/>
      <point x="277" y="157" type="line" smooth="yes"/>
      <point x="277" y="75"/>
      <point x="250" y="12"/>
    </contour>
    <contour>
      <point x="293" y="279" type="line"/>
      <point x="293" y="363" type="line" smooth="yes"/>
      <point x="293" y="438"/>
      <point x="308" y="487"/>
      <point x="397" y="487" type="curve" smooth="yes"/>
      <point x="497" y="487"/>
      <point x="500" y="433"/>
      <point x="500" y="363" type="curve" smooth="yes"/>
      <point x="500" y="279" type="line"/>
    </contour>
  </outline>
</glyph>
<glyph name="divide" format="2">
  <advance width="352"/>
  <unicode hex="00F7"/>
  <note>
divide
</note>
  <outline>
    <contour>
      <point x="50" y="281" type="line"/>
      <point x="302" y="281" type="line"/>
      <point x="302" y="297" type="line"/>
      <point x="50" y="297" type="line"/>
    </contour>
    <contour>
      <point x="176" y="107" type="curve" smooth="yes"/>
      <point x="187" y="107"/>
      <point x="192" y="112"/>
      <point x="192" y="123" type="curve" smooth="yes"/>
      <point x="192" y="134"/>
      <point x="187" y="139"/>
      <point x="176" y="139" type="curve" smooth="yes"/>
      <point x="165" y="139"/>
      <point x="160" y="134"/>
      <point x="160" y="123" type="curve" smooth="yes"/>
      <point x="160" y="112"/>
      <point x="165" y="107"/>
    </contour>
    <contour>
      <point x="176" y="427" type="curve" smooth="yes"/>
      <point x="187" y="427"/>
      <point x="192" y="432"/>
      <point x="192" y="443" type="curve" smooth="yes"/>
      <point x="192" y="454"/>
      <point x="187" y="459"/>
      <point x="176" y="459" type="curve" smooth="yes"/>
      <point x="165" y="459"/>
      <point x="160" y="454"/>
      <point x="160" y="443" type="curve" smooth="yes"/>
      <point x="160" y="432"/>
      <point x="165" y="427"/>
    </contour>
  </outline>
</glyph>
<glyph name="thorn" format="2">
  <advance width="366"/>
  <unicode hex="00FE"/>
  <note>
thorn
</note>
  <outline>
    <contour>
      <point x="68" y="-116" type="line"/>
      <point x="84" y="-116" type="line"/>
      <point x="84" y="38" type="line"/>
      <point x="92" y="16"/>
      <point x="121" y="-7"/>
      <point x="188" y="-7" type="curve" smooth="yes"/>
      <point x="301" y="-7"/>
      <point x="307" y="62"/>
      <point x="307" y="124" type="curve" smooth="yes"/>
      <point x="307" y="372" type="line" smooth="yes"/>
      <point x="307" y="433"/>
      <point x="301" y="503"/>
      <point x="188" y="503" type="curve" smooth="yes"/>
      <point x="119" y="503"/>
      <point x="91" y="471"/>
      <point x="84" y="445" type="curve"/>
      <point x="84" y="630" type="line"/>
      <point x="68" y="630" type="line"/>
    </contour>
    <contour>
      <point x="188" y="9" type="curve" smooth="yes"/>
      <point x="84" y="9"/>
      <point x="84" y="74"/>
      <point x="84" y="127" type="curve" smooth="yes"/>
      <point x="84" y="363" type="line" smooth="yes"/>
      <point x="84" y="428"/>
      <point x="92" y="487"/>
      <point x="188" y="487" type="curve" smooth="yes"/>
      <point x="291" y="487"/>
      <point x="291" y="428"/>
      <point x="291" y="369" type="curve" smooth="yes"/>
      <point x="291" y="127" type="line" smooth="yes"/>
      <point x="291" y="74"/>
      <point x="291" y="9"/>
    </contour>
  </outline>
</glyph>
<glyph name="dcroat" format="2">
  <advance width="366"/>
  <unicode hex="0111"/>
  <note>
dcroat
</note>
  <outline>
    <contour>
      <point x="178" y="-7" type="curve" smooth="yes"/>
      <point x="234" y="-7"/>
      <point x="273" y="22"/>
      <point x="283" y="50" type="curve"/>
      <point x="285" y="0" type="line"/>
      <point x="298" y="0" type="line"/>
      <point x="298" y="630" type="line"/>
      <point x="282" y="630" type="line"/>
      <point x="282" y="466" type="line"/>
      <point x="274" y="474"/>
      <point x="247" y="503"/>
      <point x="178" y="503" type="curve" smooth="yes"/>
      <point x="65" y="503"/>
      <point x="59" y="433"/>
      <point x="59" y="372" type="curve" smooth="yes"/>
      <point x="59" y="124" type="line" smooth="yes"/>
      <point x="59" y="62"/>
      <point x="65" y="-7"/>
    </contour>
    <contour>
      <point x="178" y="9" type="curve" smooth="yes"/>
      <point x="75" y="9"/>
      <point x="75" y="74"/>
      <point x="75" y="127" type="curve" smooth="yes"/>
      <point x="75" y="369" type="line" smooth="yes"/>
      <point x="75" y="422"/>
      <point x="75" y="487"/>
      <point x="178" y="487" type="curve" smooth="yes"/>
      <point x="260" y="487"/>
      <point x="276" y="450"/>
      <point x="282" y="437" type="curve"/>
      <point x="282" y="127" type="line" smooth="yes"/>
      <point x="282" y="65"/>
      <point x="262" y="9"/>
    </contour>
    <contour>
      <point x="177" y="560" type="line"/>
      <point x="348" y="560" type="line"/>
      <point x="348" y="575" type="line"/>
      <point x="177" y="575" type="line"/>
    </contour>
  </outline>
</glyph>
<glyph name="Hbar" format="2">
  <advance width="433"/>
  <unicode hex="0126"/>
  <note>
Hbar
</note>
  <outline>
    <contour>
      <point x="76" y="0" type="line"/>
      <point x="92" y="0" type="line"/>
      <point x="92" y="302" type="line"/>
      <point x="341" y="302" type="line"/>
      <point x="341" y="0" type="line"/>
      <point x="357" y="0" type="line"/>
      <point x="357" y="591" type="line"/>
      <point x="341" y="591" type="line"/>
      <point x="341" y="318" type="line"/>
      <point x="92" y="318" type="line"/>
      <point x="92" y="591" type="line"/>
      <point x="76" y="591" type="line"/>
    </contour>
    <contour>
      <point x="26" y="451" type="line"/>
      <point x="407" y="451" type="line"/>
      <point x="407" y="466" type="line"/>
      <point x="26" y="466" type="line"/>
    </contour>
  </outline>
</glyph>
<glyph name="idotless" format="2">
  <advance width="152"/>
  <unicode hex="0131"/>
  <note>
dotlessi
</note>
  <anchor x="76" y="0" name="bottom"/>
  <anchor x="84" y="0" name="ogonek"/>
  <anchor x="76" y="495" name="top"/>
  <outline>
    <contour>
      <point x="68" y="0" type="line"/>
      <point x="84" y="0" type="line"/>
      <point x="84" y="495" type="line"/>
      <point x="68" y="495" type="line"/>
    </contour>
  </outline>
</glyph>
<glyph name="Ldot" format="2">
  <advance width="294"/>
  <unicode hex="013F"/>
  <outline>
    <contour>
      <point x="76" y="0" type="line"/>
      <point x="290" y="0" type="line"/>
      <point x="290" y="16" type="line"/>
      <point x="92" y="16" type="line"/>
      <point x="92" y="591" type="line"/>
      <point x="76" y="591" type="line"/>
    </contour>
    <contour>
      <point x="231" y="288" type="curve" smooth="yes"/>
      <point x="242" y="288"/>
      <point x="247" y="293"/>
      <point x="247" y="304" type="curve" smooth="yes"/>
      <point x="247" y="315"/>
      <point x="242" y="320"/>
      <point x="231" y="320" type="curve" smooth="yes"/>
      <point x="220" y="320"/>
      <point x="215" y="315"/>
      <point x="215" y="304" type="curve" smooth="yes"/>
      <point x="215" y="293"/>
      <point x="220" y="288"/>
    </contour>
  </outline>
</glyph>
<glyph name="ldot" format="2">
  <advance width="152"/>
  <unicode hex="0140"/>
  <outline>
    <contour>
      <point x="68" y="0" type="line"/>
      <point x="84" y="0" type="line"/>
      <point x="84" y="630" type="line"/>
      <point x="68" y="630" type="line"/>
    </contour>
    <contour>
      <point x="152" y="288" type="curve" smooth="yes"/>
      <point x="163" y="288"/>
      <point x="168" y="293"/>
      <point x="168" y="304" type="curve" smooth="yes"/>
      <point x="168" y="315"/>
      <point x="163" y="320"/>
      <point x="152" y="320" type="curve" smooth="yes"/>
      <point x="141" y="320"/>
      <point x="136" y="315"/>
      <point x="136" y="304" type="curve" smooth="yes"/>
      <point x="136" y="293"/>
      <point x="141" y="288"/>
    </contour>
  </outline>
</glyph>
<glyph name="Lslash" format="2">
  <advance width="294"/>
  <unicode hex="0141"/>
  <note>
Lslash
</note>
  <outline>
    <contour>
      <point x="76" y="0" type="line"/>
      <point x="290" y="0" type="line"/>
      <point x="290" y="16" type="line"/>
      <point x="92" y="16" type="line"/>
      <point x="92" y="332" type="line"/>
      <point x="175" y="371" type="line"/>
      <point x="175" y="388" type="line"/>
      <point x="92" y="350" type="line"/>
      <point x="92" y="591" type="line"/>
      <point x="76" y="591" type="line"/>
      <point x="76" y="342" type="line"/>
      <point x="12" y="313" type="line"/>
      <point x="12" y="295" type="line"/>
      <point x="76" y="325" type="line"/>
    </contour>
  </outline>
</glyph>
<glyph name="lslash" format="2">
  <advance width="152"/>
  <unicode hex="0142"/>
  <note>
lslash
</note>
  <outline>
    <contour>
      <point x="13" y="275" type="line"/>
      <point x="139" y="382" type="line"/>
      <point x="139" y="402" type="line"/>
      <point x="13" y="295" type="line"/>
    </contour>
    <contour>
      <point x="68" y="0" type="line"/>
      <point x="84" y="0" type="line"/>
      <point x="84" y="630" type="line"/>
      <point x="68" y="630" type="line"/>
    </contour>
  </outline>
</glyph>
<glyph name="eng" format="2">
  <advance width="373"/>
  <unicode hex="014B"/>
  <note>
eng
</note>
  <outline>
    <contour>
      <point x="239" y="-116" type="curve" smooth="yes"/>
      <point x="288" y="-116"/>
      <point x="312" y="-86"/>
      <point x="312" y="-33" type="curve" smooth="yes"/>
      <point x="312" y="372" type="line" smooth="yes"/>
      <point x="312" y="433"/>
      <point x="306" y="503"/>
      <point x="193" y="503" type="curve" smooth="yes"/>
      <point x="130" y="503"/>
      <point x="99" y="474"/>
      <point x="84" y="443" type="curve"/>
      <point x="82" y="495" type="line"/>
      <point x="68" y="495" type="line"/>
      <point x="68" y="0" type="line"/>
      <point x="84" y="0" type="line"/>
      <point x="84" y="384" type="line" smooth="yes"/>
      <point x="84" y="441"/>
      <point x="119" y="487"/>
      <point x="193" y="487" type="curve" smooth="yes"/>
      <point x="293" y="487"/>
      <point x="296" y="422"/>
      <point x="296" y="363" type="curve" smooth="yes"/>
      <point x="296" y="-32" type="line" smooth="yes"/>
      <point x="296" y="-68"/>
      <point x="283" y="-101"/>
      <point x="240" y="-101" type="curve" smooth="yes"/>
      <point x="221" y="-101"/>
      <point x="204" y="-99"/>
      <point x="190" y="-97" type="curve"/>
      <point x="190" y="-113" type="line"/>
      <point x="189" y="-113"/>
      <point x="214" y="-116"/>
    </contour>
  </outline>
</glyph>
<glyph name="longs" format="2">
  <advance width="188"/>
  <unicode hex="017F"/>
  <note>
longs
</note>
  <outline>
    <contour>
      <point x="16" y="-147" type="curve" smooth="yes"/>
      <point x="64" y="-147"/>
      <point x="87" y="-114"/>
      <point x="87" y="-58" type="curve" smooth="yes"/>
      <point x="87" y="552" type="line" smooth="yes"/>
      <point x="87" y="584"/>
      <point x="95" y="621"/>
      <point x="148" y="621" type="curve" smooth="yes"/>
      <point x="155" y="621"/>
      <point x="189" y="620"/>
      <point x="202" y="617" type="curve"/>
      <point x="202" y="632" type="line"/>
      <point x="195" y="633"/>
      <point x="173" y="636"/>
      <point x="143" y="636" type="curve" smooth="yes"/>
      <point x="91" y="636"/>
      <point x="70" y="603"/>
      <point x="70" y="547" type="curve" smooth="yes"/>
      <point x="70" y="441" type="line"/>
      <point x="39" y="441" type="line"/>
      <point x="39" y="425" type="line"/>
      <point x="70" y="425" type="line"/>
      <point x="71" y="-63" type="line" smooth="yes"/>
      <point x="71" y="-98"/>
      <point x="52" y="-132"/>
      <point x="15" y="-132" type="curve" smooth="yes"/>
      <point x="-5" y="-132"/>
      <point x="-34" y="-130"/>
      <point x="-45" y="-128" type="curve"/>
      <point x="-45" y="-143" type="line"/>
      <point x="-31" y="-145"/>
      <point x="-11" y="-147"/>
    </contour>
  </outline>
</glyph>
<glyph name="Schwa" format="2">
  <advance width="404"/>
  <unicode hex="018F"/>
  <outline>
    <contour>
      <point x="200" y="-8" type="curve" smooth="yes"/>
      <point x="277" y="-8"/>
      <point x="337" y="6"/>
      <point x="337" y="122" type="curve" smooth="yes"/>
      <point x="337" y="473" type="line" smooth="yes"/>
      <point x="337" y="587"/>
      <point x="278" y="603"/>
      <point x="202" y="603" type="curve" smooth="yes"/>
      <point x="129" y="603"/>
      <point x="64" y="589"/>
      <point x="64" y="473" type="curve" smooth="yes"/>
      <point x="64" y="402" type="line"/>
      <point x="80" y="402" type="line"/>
      <point x="80" y="468" type="line" smooth="yes"/>
      <point x="80" y="572"/>
      <point x="135" y="587"/>
      <point x="201" y="587" type="curve" smooth="yes"/>
      <point x="266" y="587"/>
      <point x="321" y="572"/>
      <point x="321" y="468" type="curve" smooth="yes"/>
      <point x="321" y="130" type="line" smooth="yes"/>
      <point x="321" y="25"/>
      <point x="272" y="8"/>
      <point x="201" y="8" type="curve" smooth="yes"/>
      <point x="130" y="8"/>
      <point x="80" y="23"/>
      <point x="80" y="124" type="curve" smooth="yes"/>
      <point x="80" y="247" type="line"/>
      <point x="64" y="247" type="line"/>
      <point x="64" y="122" type="line" smooth="yes"/>
      <point x="64" y="8"/>
      <point x="123" y="-8"/>
    </contour>
    <contour>
      <point x="64" y="231" type="line"/>
      <point x="329" y="231" type="line"/>
      <point x="329" y="247" type="line"/>
      <point x="64" y="247" type="line"/>
    </contour>
  </outline>
</glyph>
<glyph name="florin" format="2">
  <advance width="297"/>
  <unicode hex="0192"/>
  <note>
florin
</note>
  <outline>
    <contour>
      <point x="-11" y="-149" type="curve" smooth="yes"/>
      <point x="41" y="-149"/>
      <point x="65" y="-116"/>
      <point x="73" y="-60" type="curve" smooth="yes"/>
      <point x="137" y="409" type="line"/>
      <point x="244" y="409" type="line"/>
      <point x="247" y="425" type="line"/>
      <point x="139" y="425" type="line"/>
      <point x="152" y="522" type="line" smooth="yes"/>
      <point x="161" y="591"/>
      <point x="182" y="622"/>
      <point x="224" y="622" type="curve" smooth="yes"/>
      <point x="241" y="622"/>
      <point x="255" y="621"/>
      <point x="266" y="620" type="curve" smooth="yes"/>
      <point x="283" y="618" type="line"/>
      <point x="285" y="632" type="line"/>
      <point x="272" y="634"/>
      <point x="251" y="636"/>
      <point x="226" y="636" type="curve" smooth="yes"/>
      <point x="174" y="636"/>
      <point x="148" y="603"/>
      <point x="139" y="542" type="curve" smooth="yes"/>
      <point x="123" y="425" type="line"/>
      <point x="81" y="425" type="line"/>
      <point x="78" y="409" type="line"/>
      <point x="121" y="409" type="line"/>
      <point x="57" y="-59" type="line" smooth="yes"/>
      <point x="52" y="-94"/>
      <point x="39" y="-134"/>
      <point x="-8" y="-134" type="curve" smooth="yes"/>
      <point x="-25" y="-134"/>
      <point x="-38" y="-133"/>
      <point x="-49" y="-132" type="curve" smooth="yes"/>
      <point x="-66" y="-130" type="line"/>
      <point x="-69" y="-145" type="line"/>
      <point x="-58" y="-147"/>
      <point x="-35" y="-149"/>
    </contour>
  </outline>
</glyph>
<glyph name="primemod" format="2">
  <advance width="88"/>
  <unicode hex="02B9"/>
  <outline>
    <contour>
      <point x="20" y="478" type="line"/>
      <point x="29" y="478" type="line"/>
      <point x="68" y="630" type="line"/>
      <point x="52" y="630" type="line"/>
    </contour>
  </outline>
</glyph>
<glyph name="apostrophemod" format="2">
  <advance width="100"/>
  <unicode hex="02BC"/>
  <outline>
    <contour>
      <point x="31" y="511" type="curve"/>
      <point x="44" y="511" type="line"/>
      <point x="61" y="536"/>
      <point x="79" y="575"/>
      <point x="79" y="602" type="curve" smooth="yes"/>
      <point x="79" y="615"/>
      <point x="73" y="627"/>
      <point x="58" y="627" type="curve" smooth="yes"/>
      <point x="47" y="627"/>
      <point x="41" y="617"/>
      <point x="41" y="608" type="curve" smooth="yes"/>
      <point x="41" y="588"/>
      <point x="56" y="588"/>
      <point x="56" y="575" type="curve" smooth="yes"/>
      <point x="56" y="557"/>
      <point x="39" y="525"/>
    </contour>
  </outline>
</glyph>
<glyph name="dotaccentcomb" format="2">
  <unicode hex="0307"/>
  <anchor x="250" y="495" name="_top"/>
  <anchor x="250" y="570" name="top"/>
  <outline>
    <contour>
      <point x="250" y="566" type="curve" smooth="yes"/>
      <point x="260" y="566"/>
      <point x="264" y="570"/>
      <point x="264" y="580" type="curve" smooth="yes"/>
      <point x="264" y="590"/>
      <point x="260" y="594"/>
      <point x="250" y="594" type="curve" smooth="yes"/>
      <point x="240" y="594"/>
      <point x="236" y="590"/>
      <point x="236" y="580" type="curve" smooth="yes"/>
      <point x="236" y="570"/>
      <point x="240" y="566"/>
    </contour>
  </outline>
</glyph>
<glyph name="dieresiscomb" format="2">
  <unicode hex="0308"/>
  <anchor x="251" y="495" name="_top"/>
  <anchor x="251" y="570" name="top"/>
  <outline>
    <contour>
      <point x="289" y="566" type="curve" smooth="yes"/>
      <point x="298" y="566"/>
      <point x="303" y="571"/>
      <point x="303" y="580" type="curve" smooth="yes"/>
      <point x="303" y="589"/>
      <point x="298" y="594"/>
      <point x="289" y="594" type="curve" smooth="yes"/>
      <point x="280" y="594"/>
      <point x="275" y="589"/>
      <point x="275" y="580" type="curve" smooth="yes"/>
      <point x="275" y="571"/>
      <point x="280" y="566"/>
    </contour>
    <contour>
      <point x="212" y="566" type="curve" smooth="yes"/>
      <point x="221" y="566"/>
      <point x="226" y="571"/>
      <point x="226" y="580" type="curve" smooth="yes"/>
      <point x="226" y="589"/>
      <point x="221" y="594"/>
      <point x="212" y="594" type="curve" smooth="yes"/>
      <point x="203" y="594"/>
      <point x="198" y="589"/>
      <point x="198" y="580" type="curve" smooth="yes"/>
      <point x="198" y="571"/>
      <point x="203" y="566"/>
    </contour>
  </outline>
</glyph>
<glyph name="hungarumlautcomb" format="2">
  <unicode hex="030B"/>
  <anchor x="218" y="495" name="_top"/>
  <anchor x="253" y="631" name="top"/>
  <outline>
    <contour>
      <point x="230" y="544" type="line"/>
      <point x="245" y="544" type="line"/>
      <point x="316" y="630" type="line"/>
      <point x="296" y="630" type="line"/>
    </contour>
    <contour>
      <point x="185" y="545" type="line"/>
      <point x="200" y="545" type="line"/>
      <point x="271" y="631" type="line"/>
      <point x="251" y="631" type="line"/>
    </contour>
  </outline>
</glyph>
<glyph name="breveinvertedcomb" format="2">
  <unicode hex="0311"/>
  <anchor x="255" y="495" name="_top"/>
  <anchor x="255" y="591" name="top"/>
  <outline>
    <contour>
      <point x="167" y="547" type="curve"/>
      <point x="183" y="547" type="line"/>
      <point x="183" y="588"/>
      <point x="221" y="608"/>
      <point x="256" y="608" type="curve" smooth="yes"/>
      <point x="290" y="608"/>
      <point x="317" y="591"/>
      <point x="318" y="547" type="curve"/>
      <point x="334" y="547" type="line"/>
      <point x="334" y="584"/>
      <point x="315" y="624"/>
      <point x="257" y="624" type="curve" smooth="yes"/>
      <point x="198" y="624"/>
      <point x="167" y="585"/>
    </contour>
  </outline>
</glyph>
<glyph name="commaturnedabovecomb" format="2">
  <unicode hex="0312"/>
  <anchor x="248" y="495" name="_top"/>
  <anchor x="251" y="630" name="top"/>
  <outline>
    <contour>
      <point x="247" y="544" type="curve" smooth="yes"/>
      <point x="257" y="544"/>
      <point x="262" y="551"/>
      <point x="262" y="558" type="curve" smooth="yes"/>
      <point x="262" y="574"/>
      <point x="249" y="574"/>
      <point x="249" y="584" type="curve" smooth="yes"/>
      <point x="249" y="598"/>
      <point x="264" y="623"/>
      <point x="271" y="633" type="curve"/>
      <point x="260" y="633" type="line"/>
      <point x="245" y="614"/>
      <point x="229" y="584"/>
      <point x="229" y="563" type="curve" smooth="yes"/>
      <point x="229" y="553"/>
      <point x="234" y="544"/>
    </contour>
  </outline>
</glyph>
<glyph name="horncomb" format="2">
  <unicode hex="031B"/>
  <note>
horncomb
</note>
  <anchor x="210" y="495" name="_topright"/>
  <anchor x="307" y="559" name="topright"/>
  <outline>
    <contour>
      <point x="212" y="484" type="line"/>
      <point x="259" y="484"/>
      <point x="290" y="505"/>
      <point x="290" y="550" type="curve" smooth="yes"/>
      <point x="290" y="559" type="line"/>
      <point x="274" y="559" type="line"/>
      <point x="274" y="549" type="line" smooth="yes"/>
      <point x="274" y="510"/>
      <point x="250" y="495"/>
      <point x="210" y="495" type="curve"/>
    </contour>
  </outline>
</glyph>
<glyph name="commaaccentcomb" format="2">
  <unicode hex="0326"/>
  <anchor x="253" y="0" name="_bottom"/>
  <anchor x="245" y="-139" name="bottom"/>
  <outline>
    <contour>
      <point x="229" y="-130" type="curve"/>
      <point x="240" y="-130" type="line"/>
      <point x="255" y="-111"/>
      <point x="271" y="-81"/>
      <point x="271" y="-60" type="curve" smooth="yes"/>
      <point x="271" y="-50"/>
      <point x="266" y="-41"/>
      <point x="253" y="-41" type="curve" smooth="yes"/>
      <point x="243" y="-41"/>
      <point x="238" y="-48"/>
      <point x="238" y="-55" type="curve" smooth="yes"/>
      <point x="238" y="-71"/>
      <point x="251" y="-71"/>
      <point x="251" y="-81" type="curve" smooth="yes"/>
      <point x="251" y="-95"/>
      <point x="236" y="-120"/>
    </contour>
  </outline>
</glyph>
<glyph name="cedillacomb" format="2">
  <unicode hex="0327"/>
  <anchor x="242" y="0" name="_bottom"/>
  <anchor x="250" y="-134" name="bottom"/>
  <outline>
    <contour>
      <point x="242" y="-134" type="curve" smooth="yes"/>
      <point x="281" y="-134"/>
      <point x="301" y="-108"/>
      <point x="301" y="-84" type="curve" smooth="yes"/>
      <point x="301" y="-62"/>
      <point x="285" y="-41"/>
      <point x="252" y="-41" type="curve" smooth="yes"/>
      <point x="245" y="-41"/>
      <point x="232" y="-42"/>
      <point x="229" y="-43" type="curve"/>
      <point x="251" y="0" type="line"/>
      <point x="238" y="0" type="line"/>
      <point x="204" y="-57" type="line"/>
      <point x="212" y="-67" type="line"/>
      <point x="221" y="-60"/>
      <point x="233" y="-57"/>
      <point x="251" y="-57" type="curve" smooth="yes"/>
      <point x="272" y="-57"/>
      <point x="285" y="-67"/>
      <point x="285" y="-86" type="curve" smooth="yes"/>
      <point x="285" y="-106"/>
      <point x="270" y="-119"/>
      <point x="242" y="-119" type="curve" smooth="yes"/>
      <point x="228" y="-119"/>
      <point x="214" y="-114"/>
      <point x="207" y="-108" type="curve"/>
      <point x="199" y="-122" type="line"/>
      <point x="210" y="-128"/>
      <point x="222" y="-134"/>
    </contour>
  </outline>
</glyph>
<glyph name="ogonekcomb" format="2">
  <unicode hex="0328"/>
  <anchor x="270" y="1" name="_ogonek"/>
  <outline>
    <contour>
      <point x="260" y="-128" type="curve" smooth="yes"/>
      <point x="273" y="-128"/>
      <point x="288" y="-125"/>
      <point x="300" y="-117" type="curve"/>
      <point x="294" y="-105" type="line"/>
      <point x="282" y="-111"/>
      <point x="272" y="-113"/>
      <point x="260" y="-113" type="curve" smooth="yes"/>
      <point x="235" y="-113"/>
      <point x="216" y="-97"/>
      <point x="216" y="-74" type="curve" smooth="yes"/>
      <point x="216" y="-46"/>
      <point x="244" y="-15"/>
      <point x="270" y="1" type="curve"/>
      <point x="254" y="1" type="line"/>
      <point x="230" y="-11"/>
      <point x="200" y="-40"/>
      <point x="200" y="-74" type="curve" smooth="yes"/>
      <point x="200" y="-108"/>
      <point x="224" y="-128"/>
    </contour>
  </outline>
</glyph>
<glyph name="brevebelowcomb" format="2">
  <unicode hex="032E"/>
  <anchor x="246" y="0" name="_bottom"/>
  <anchor x="246" y="-120" name="bottom"/>
  <outline>
    <contour>
      <point x="244" y="-116" type="curve" smooth="yes"/>
      <point x="303" y="-116"/>
      <point x="334" y="-77"/>
      <point x="334" y="-39" type="curve"/>
      <point x="318" y="-39" type="line"/>
      <point x="318" y="-80"/>
      <point x="280" y="-100"/>
      <point x="245" y="-100" type="curve" smooth="yes"/>
      <point x="211" y="-100"/>
      <point x="184" y="-83"/>
      <point x="183" y="-39" type="curve"/>
      <point x="167" y="-39" type="line"/>
      <point x="167" y="-76"/>
      <point x="186" y="-116"/>
    </contour>
  </outline>
</glyph>
<glyph name="macronbelowcomb" format="2">
  <unicode hex="0331"/>
  <anchor x="250" y="0" name="_bottom"/>
  <anchor x="250" y="-70" name="bottom"/>
  <outline>
    <contour>
      <point x="170" y="-52" type="line"/>
      <point x="330" y="-52" type="line"/>
      <point x="330" y="-36" type="line"/>
      <point x="170" y="-36" type="line"/>
    </contour>
  </outline>
</glyph>
<glyph name="pi" format="2">
  <advance width="527"/>
  <unicode hex="03C0"/>
  <note>
pi
</note>
  <outline>
    <contour>
      <point x="106" y="0" type="curve"/>
      <point x="122" y="0" type="line"/>
      <point x="157" y="168"/>
      <point x="188" y="344"/>
      <point x="188" y="478" type="curve"/>
      <point x="396" y="478" type="line"/>
      <point x="396" y="0" type="line"/>
      <point x="412" y="0" type="line"/>
      <point x="412" y="478" type="line"/>
      <point x="497" y="478" type="line"/>
      <point x="497" y="495" type="line"/>
      <point x="205" y="495" type="line" smooth="yes"/>
      <point x="111" y="495"/>
      <point x="74" y="485"/>
      <point x="36" y="469" type="curve"/>
      <point x="36" y="452" type="line"/>
      <point x="77" y="468"/>
      <point x="115" y="476"/>
      <point x="172" y="479" type="curve"/>
      <point x="172" y="321"/>
      <point x="130" y="112"/>
    </contour>
  </outline>
</glyph>
<glyph name="Dje-cy" format="2">
  <advance width="433"/>
  <unicode hex="0402"/>
  <note>
uni0402
</note>
  <outline>
    <contour>
      <point x="122" y="0" type="line"/>
      <point x="138" y="0" type="line"/>
      <point x="138" y="323" type="line"/>
      <point x="143" y="380"/>
      <point x="174" y="421"/>
      <point x="247" y="421" type="curve" smooth="yes"/>
      <point x="347" y="421"/>
      <point x="350" y="356"/>
      <point x="350" y="297" type="curve" smooth="yes"/>
      <point x="350" y="142" type="line" smooth="yes"/>
      <point x="350" y="55"/>
      <point x="331" y="16"/>
      <point x="230" y="16" type="curve"/>
      <point x="230" y="0" type="line"/>
      <point x="348" y="0"/>
      <point x="366" y="45"/>
      <point x="366" y="146" type="curve" smooth="yes"/>
      <point x="366" y="306" type="line" smooth="yes"/>
      <point x="366" y="367"/>
      <point x="360" y="437"/>
      <point x="247" y="437" type="curve" smooth="yes"/>
      <point x="184" y="437"/>
      <point x="153" y="410"/>
      <point x="138" y="379" type="curve"/>
      <point x="138" y="575" type="line"/>
      <point x="250" y="575" type="line"/>
      <point x="250" y="591" type="line"/>
      <point x="11" y="591" type="line"/>
      <point x="11" y="575" type="line"/>
      <point x="122" y="575" type="line"/>
    </contour>
  </outline>
</glyph>
<glyph name="Lje-cy" format="2">
  <advance width="625"/>
  <unicode hex="0409"/>
  <note>
uni0409
</note>
  <outline>
    <contour>
      <point x="55" y="0" type="line"/>
      <point x="110" y="0"/>
      <point x="116" y="77"/>
      <point x="116" y="92" type="curve"/>
      <point x="151" y="575" type="line"/>
      <point x="323" y="575" type="line"/>
      <point x="323" y="0" type="line"/>
      <point x="447" y="0" type="line" smooth="yes"/>
      <point x="560" y="0"/>
      <point x="566" y="69"/>
      <point x="566" y="131" type="curve" smooth="yes"/>
      <point x="566" y="304" type="line" smooth="yes"/>
      <point x="566" y="365"/>
      <point x="560" y="435"/>
      <point x="447" y="435" type="curve" smooth="yes"/>
      <point x="339" y="435" type="line"/>
      <point x="339" y="591" type="line"/>
      <point x="135" y="591" type="line"/>
      <point x="100" y="92" type="line" smooth="yes"/>
      <point x="96" y="41"/>
      <point x="82" y="16"/>
      <point x="55" y="16" type="curve"/>
    </contour>
    <contour>
      <point x="339" y="15" type="line"/>
      <point x="339" y="420" type="line"/>
      <point x="443" y="420" type="line" smooth="yes"/>
      <point x="546" y="420"/>
      <point x="551" y="360"/>
      <point x="551" y="301" type="curve" smooth="yes"/>
      <point x="551" y="134" type="line" smooth="yes"/>
      <point x="551" y="75"/>
      <point x="546" y="15"/>
      <point x="443" y="15" type="curve" smooth="yes"/>
    </contour>
  </outline>
</glyph>
<glyph name="Nje-cy" format="2">
  <advance width="624"/>
  <unicode hex="040A"/>
  <note>
uni040A
</note>
  <outline>
    <contour>
      <point x="76" y="0" type="line"/>
      <point x="92" y="0" type="line"/>
      <point x="92" y="302" type="line"/>
      <point x="321" y="302" type="line"/>
      <point x="321" y="0" type="line"/>
      <point x="337" y="0" type="line"/>
      <point x="337" y="591" type="line"/>
      <point x="321" y="591" type="line"/>
      <point x="321" y="318" type="line"/>
      <point x="92" y="318" type="line"/>
      <point x="92" y="591" type="line"/>
      <point x="76" y="591" type="line"/>
    </contour>
    <contour>
      <point x="337" y="15" type="line"/>
      <point x="337" y="420" type="line"/>
      <point x="442" y="420" type="line" smooth="yes"/>
      <point x="545" y="420"/>
      <point x="550" y="360"/>
      <point x="550" y="301" type="curve" smooth="yes"/>
      <point x="550" y="134" type="line" smooth="yes"/>
      <point x="550" y="75"/>
      <point x="545" y="15"/>
      <point x="442" y="15" type="curve" smooth="yes"/>
    </contour>
    <contour>
      <point x="322" y="0" type="line"/>
      <point x="446" y="0" type="line" smooth="yes"/>
      <point x="559" y="0"/>
      <point x="565" y="69"/>
      <point x="565" y="131" type="curve" smooth="yes"/>
      <point x="565" y="304" type="line" smooth="yes"/>
      <point x="565" y="365"/>
      <point x="559" y="435"/>
      <point x="446" y="435" type="curve" smooth="yes"/>
      <point x="337" y="435" type="line"/>
      <point x="337" y="588" type="line"/>
      <point x="322" y="588" type="line"/>
    </contour>
  </outline>
</glyph>
<glyph name="De-cy" format="2">
  <advance width="443"/>
  <unicode hex="0414"/>
  <note>
uni0414
</note>
  <outline>
    <contour>
      <point x="16" y="-99" type="line"/>
      <point x="32" y="-99" type="line"/>
      <point x="32" y="-5" type="line"/>
      <point x="414" y="-5" type="line"/>
      <point x="414" y="-99" type="line"/>
      <point x="430" y="-99" type="line"/>
      <point x="430" y="11" type="line"/>
      <point x="354" y="11" type="line"/>
      <point x="354" y="591" type="line"/>
      <point x="152" y="591" type="line"/>
      <point x="116" y="92" type="line" smooth="yes"/>
      <point x="112" y="40"/>
      <point x="99" y="13"/>
      <point x="66" y="11" type="curve" smooth="yes"/>
      <point x="16" y="11" type="line"/>
    </contour>
    <contour>
      <point x="104" y="11" type="line"/>
      <point x="128" y="32"/>
      <point x="131" y="80"/>
      <point x="132" y="92" type="curve" smooth="yes"/>
      <point x="167" y="575" type="line"/>
      <point x="338" y="575" type="line"/>
      <point x="338" y="11" type="line"/>
    </contour>
  </outline>
</glyph>
<glyph name="Zhe-cy" format="2">
  <advance width="500"/>
  <unicode hex="0416"/>
  <note>
uni0416
</note>
  <outline>
    <contour>
      <point x="13" y="0" type="line"/>
      <point x="32" y="0" type="line"/>
      <point x="210" y="294" type="line"/>
      <point x="242" y="294" type="line"/>
      <point x="242" y="0" type="line"/>
      <point x="258" y="0" type="line"/>
      <point x="258" y="294" type="line"/>
      <point x="290" y="294" type="line"/>
      <point x="468" y="0" type="line"/>
      <point x="487" y="0" type="line"/>
      <point x="301" y="306" type="line"/>
      <point x="482" y="591" type="line"/>
      <point x="464" y="591" type="line"/>
      <point x="285" y="310" type="line"/>
      <point x="258" y="310" type="line"/>
      <point x="258" y="591" type="line"/>
      <point x="242" y="591" type="line"/>
      <point x="242" y="310" type="line"/>
      <point x="214" y="310" type="line"/>
      <point x="36" y="591" type="line"/>
      <point x="18" y="591" type="line"/>
      <point x="199" y="306" type="line"/>
    </contour>
  </outline>
</glyph>
<glyph name="Ka-cy" format="2">
  <advance width="332"/>
  <unicode hex="041A"/>
  <note>
uni041A
</note>
  <anchor x="312" y="0" name="bottomright"/>
  <anchor x="194" y="591" name="top"/>
  <outline>
    <contour>
      <point x="76" y="0" type="line"/>
      <point x="92" y="0" type="line"/>
      <point x="92" y="296" type="line"/>
      <point x="123" y="296" type="line"/>
      <point x="300" y="0" type="line"/>
      <point x="319" y="0" type="line"/>
      <point x="135" y="306" type="line"/>
      <point x="314" y="591" type="line"/>
      <point x="296" y="591" type="line"/>
      <point x="121" y="312" type="line"/>
      <point x="92" y="312" type="line"/>
      <point x="92" y="591" type="line"/>
      <point x="76" y="591" type="line"/>
    </contour>
  </outline>
</glyph>
<glyph name="Ef-cy" format="2">
  <advance width="443"/>
  <unicode hex="0424"/>
  <note>
uni0424
</note>
  <outline>
    <contour>
      <point x="214" y="0" type="line"/>
      <point x="230" y="0" type="line"/>
      <point x="230" y="59" type="line"/>
      <point x="239" y="59" type="line" smooth="yes"/>
      <point x="319" y="59"/>
      <point x="376" y="73"/>
      <point x="376" y="189" type="curve" smooth="yes"/>
      <point x="376" y="403" type="line" smooth="yes"/>
      <point x="376" y="517"/>
      <point x="317" y="533"/>
      <point x="240" y="533" type="curve" smooth="yes"/>
      <point x="230" y="533" type="line"/>
      <point x="230" y="591" type="line"/>
      <point x="214" y="591" type="line"/>
      <point x="214" y="533" type="line"/>
      <point x="203" y="533" type="line" smooth="yes"/>
      <point x="126" y="533"/>
      <point x="67" y="519"/>
      <point x="67" y="403" type="curve" smooth="yes"/>
      <point x="67" y="189" type="line" smooth="yes"/>
      <point x="67" y="75"/>
      <point x="126" y="59"/>
      <point x="202" y="59" type="curve" smooth="yes"/>
      <point x="214" y="59" type="line"/>
    </contour>
    <contour>
      <point x="201" y="74" type="line" smooth="yes"/>
      <point x="133" y="74"/>
      <point x="83" y="83"/>
      <point x="83" y="186" type="curve" smooth="yes"/>
      <point x="83" y="406" type="line" smooth="yes"/>
      <point x="83" y="510"/>
      <point x="138" y="518"/>
      <point x="203" y="518" type="curve" smooth="yes"/>
      <point x="214" y="518" type="line"/>
      <point x="214" y="74" type="line"/>
    </contour>
    <contour>
      <point x="230" y="74" type="line"/>
      <point x="230" y="518" type="line"/>
      <point x="240" y="518" type="line" smooth="yes"/>
      <point x="303" y="518"/>
      <point x="360" y="509"/>
      <point x="360" y="406" type="curve" smooth="yes"/>
      <point x="360" y="186" type="line" smooth="yes"/>
      <point x="360" y="82"/>
      <point x="309" y="74"/>
      <point x="239" y="74" type="curve" smooth="yes"/>
    </contour>
  </outline>
</glyph>
<glyph name="Tse-cy" format="2">
  <advance width="401"/>
  <unicode hex="0426"/>
  <note>
uni0426
</note>
  <outline>
    <contour>
      <point x="329" y="-74" type="line"/>
      <point x="345" y="-74" type="line"/>
      <point x="345" y="16" type="line"/>
      <point x="325" y="16" type="line"/>
      <point x="325" y="591" type="line"/>
      <point x="309" y="591" type="line"/>
      <point x="309" y="16" type="line"/>
      <point x="92" y="16" type="line"/>
      <point x="92" y="591" type="line"/>
      <point x="76" y="591" type="line"/>
      <point x="76" y="0" type="line"/>
      <point x="329" y="0" type="line"/>
    </contour>
  </outline>
</glyph>
<glyph name="Che-cy" format="2">
  <advance width="396"/>
  <unicode hex="0427"/>
  <note>
uni0427
</note>
  <outline>
    <contour>
      <point x="304" y="0" type="line"/>
      <point x="320" y="0" type="line"/>
      <point x="320" y="591" type="line"/>
      <point x="304" y="591" type="line"/>
      <point x="304" y="245" type="line"/>
      <point x="299" y="188"/>
      <point x="268" y="147"/>
      <point x="195" y="147" type="curve" smooth="yes"/>
      <point x="95" y="147"/>
      <point x="92" y="212"/>
      <point x="92" y="271" type="curve" smooth="yes"/>
      <point x="92" y="591" type="line"/>
      <point x="76" y="591" type="line"/>
      <point x="76" y="262" type="line" smooth="yes"/>
      <point x="76" y="201"/>
      <point x="82" y="131"/>
      <point x="195" y="131" type="curve" smooth="yes"/>
      <point x="258" y="131"/>
      <point x="289" y="158"/>
      <point x="304" y="189" type="curve"/>
    </contour>
  </outline>
</glyph>
<glyph name="Sha-cy" format="2">
  <advance width="626"/>
  <unicode hex="0428"/>
  <note>
uni0428
</note>
  <outline>
    <contour>
      <point x="76" y="0" type="line"/>
      <point x="550" y="0" type="line"/>
      <point x="550" y="591" type="line"/>
      <point x="534" y="591" type="line"/>
      <point x="534" y="16" type="line"/>
      <point x="321" y="16" type="line"/>
      <point x="321" y="591" type="line"/>
      <point x="305" y="591" type="line"/>
      <point x="305" y="16" type="line"/>
      <point x="92" y="16" type="line"/>
      <point x="92" y="591" type="line"/>
      <point x="76" y="591" type="line"/>
    </contour>
  </outline>
</glyph>
<glyph name="Shcha-cy" format="2">
  <advance width="634"/>
  <unicode hex="0429"/>
  <note>
uni0429
</note>
  <outline>
    <contour>
      <point x="562" y="-74" type="line"/>
      <point x="578" y="-74" type="line"/>
      <point x="578" y="16" type="line"/>
      <point x="558" y="16" type="line"/>
      <point x="558" y="591" type="line"/>
      <point x="542" y="591" type="line"/>
      <point x="542" y="16" type="line"/>
      <point x="325" y="16" type="line"/>
      <point x="325" y="591" type="line"/>
      <point x="309" y="591" type="line"/>
      <point x="309" y="0" type="line"/>
      <point x="562" y="0" type="line"/>
    </contour>
    <contour>
      <point x="76" y="0" type="line"/>
      <point x="329" y="0" type="line"/>
      <point x="325" y="16" type="line"/>
      <point x="325" y="591" type="line"/>
      <point x="309" y="591" type="line"/>
      <point x="309" y="16" type="line"/>
      <point x="92" y="16" type="line"/>
      <point x="92" y="591" type="line"/>
      <point x="76" y="591" type="line"/>
    </contour>
  </outline>
</glyph>
<glyph name="Yeru-cy" format="2">
  <advance width="506"/>
  <unicode hex="042B"/>
  <note>
uni042B
</note>
  <outline>
    <contour>
      <point x="76" y="0" type="line"/>
      <point x="200" y="0" type="line" smooth="yes"/>
      <point x="313" y="0"/>
      <point x="319" y="69"/>
      <point x="319" y="131" type="curve" smooth="yes"/>
      <point x="319" y="304" type="line" smooth="yes"/>
      <point x="319" y="365"/>
      <point x="313" y="435"/>
      <point x="200" y="435" type="curve" smooth="yes"/>
      <point x="91" y="435" type="line"/>
      <point x="91" y="591" type="line"/>
      <point x="76" y="591" type="line"/>
    </contour>
    <contour>
      <point x="91" y="15" type="line"/>
      <point x="91" y="420" type="line"/>
      <point x="196" y="420" type="line" smooth="yes"/>
      <point x="299" y="420"/>
      <point x="304" y="360"/>
      <point x="304" y="301" type="curve" smooth="yes"/>
      <point x="304" y="134" type="line" smooth="yes"/>
      <point x="304" y="75"/>
      <point x="299" y="15"/>
      <point x="196" y="15" type="curve" smooth="yes"/>
    </contour>
    <contour>
      <point x="414" y="0" type="line"/>
      <point x="430" y="0" type="line"/>
      <point x="430" y="591" type="line"/>
      <point x="414" y="591" type="line"/>
    </contour>
  </outline>
</glyph>
<glyph name="Softsign-cy" format="2">
  <advance width="378"/>
  <unicode hex="042C"/>
  <note>
uni042C
</note>
  <outline>
    <contour>
      <point x="76" y="0" type="line"/>
      <point x="200" y="0" type="line" smooth="yes"/>
      <point x="313" y="0"/>
      <point x="319" y="69"/>
      <point x="319" y="131" type="curve" smooth="yes"/>
      <point x="319" y="304" type="line" smooth="yes"/>
      <point x="319" y="365"/>
      <point x="313" y="435"/>
      <point x="200" y="435" type="curve" smooth="yes"/>
      <point x="91" y="435" type="line"/>
      <point x="91" y="588" type="line"/>
      <point x="76" y="588" type="line"/>
    </contour>
    <contour>
      <point x="91" y="15" type="line"/>
      <point x="91" y="420" type="line"/>
      <point x="196" y="420" type="line" smooth="yes"/>
      <point x="299" y="420"/>
      <point x="304" y="360"/>
      <point x="304" y="301" type="curve" smooth="yes"/>
      <point x="304" y="134" type="line" smooth="yes"/>
      <point x="304" y="75"/>
      <point x="299" y="15"/>
      <point x="196" y="15" type="curve" smooth="yes"/>
    </contour>
  </outline>
</glyph>
<glyph name="be-cy" format="2">
  <advance width="363"/>
  <unicode hex="0431"/>
  <note>
uni0431
</note>
  <outline>
    <contour>
      <point x="182" y="-10" type="curve" smooth="yes"/>
      <point x="300" y="-10"/>
      <point x="304" y="62"/>
      <point x="304" y="124" type="curve" smooth="yes"/>
      <point x="304" y="316" type="line" smooth="yes"/>
      <point x="304" y="377"/>
      <point x="298" y="450"/>
      <point x="182" y="450" type="curve" smooth="yes"/>
      <point x="122" y="450"/>
      <point x="86" y="432"/>
      <point x="70" y="394" type="curve"/>
      <point x="76" y="393" type="line"/>
      <point x="76" y="493" type="line" smooth="yes"/>
      <point x="76" y="576"/>
      <point x="116" y="593"/>
      <point x="176" y="593" type="curve" smooth="yes"/>
      <point x="202" y="593" type="line" smooth="yes"/>
      <point x="243" y="593"/>
      <point x="264" y="600"/>
      <point x="264" y="616" type="curve" smooth="yes"/>
      <point x="264" y="626" type="line"/>
      <point x="258" y="626" type="line"/>
      <point x="253" y="613"/>
      <point x="234" y="609"/>
      <point x="210" y="609" type="curve" smooth="yes"/>
      <point x="173" y="609" type="line" smooth="yes"/>
      <point x="110" y="609"/>
      <point x="59" y="592"/>
      <point x="59" y="493" type="curve" smooth="yes"/>
      <point x="59" y="124" type="line" smooth="yes"/>
      <point x="59" y="62"/>
      <point x="67" y="-10"/>
    </contour>
    <contour>
      <point x="182" y="6" type="curve" smooth="yes"/>
      <point x="82" y="6"/>
      <point x="75" y="68"/>
      <point x="75" y="127" type="curve" smooth="yes"/>
      <point x="75" y="331" type="line" smooth="yes"/>
      <point x="75" y="384"/>
      <point x="91" y="434"/>
      <point x="182" y="434" type="curve" smooth="yes"/>
      <point x="282" y="434"/>
      <point x="288" y="372"/>
      <point x="288" y="313" type="curve" smooth="yes"/>
      <point x="288" y="127" type="line" smooth="yes"/>
      <point x="288" y="68"/>
      <point x="282" y="6"/>
    </contour>
  </outline>
</glyph>
<glyph name="ge-cy" format="2">
  <advance width="291"/>
  <unicode hex="0433"/>
  <note>
uni0433
</note>
  <anchor x="271" y="0" name="bottomright"/>
  <anchor x="175" y="495" name="top"/>
  <outline>
    <contour>
      <point x="68" y="0" type="line"/>
      <point x="84" y="0" type="line"/>
      <point x="84" y="479" type="line"/>
      <point x="281" y="479" type="line"/>
      <point x="281" y="495" type="line"/>
      <point x="68" y="495" type="line"/>
    </contour>
  </outline>
</glyph>
<glyph name="ka-cy" format="2">
  <advance width="318"/>
  <unicode hex="043A"/>
  <note>
uni043A
</note>
  <anchor x="298" y="0" name="bottomright"/>
  <anchor x="189" y="495" name="top"/>
  <outline>
    <contour>
      <point x="68" y="0" type="line"/>
      <point x="84" y="0" type="line"/>
      <point x="84" y="190" type="line"/>
      <point x="87" y="218"/>
      <point x="108" y="261"/>
      <point x="132" y="304" type="curve"/>
      <point x="281" y="0" type="line"/>
      <point x="299" y="0" type="line"/>
      <point x="143" y="318" type="line"/>
      <point x="177" y="375"/>
      <point x="237" y="447"/>
      <point x="300" y="468" type="curve"/>
      <point x="300" y="484" type="line"/>
      <point x="240" y="470"/>
      <point x="144" y="384"/>
      <point x="84" y="241" type="curve"/>
      <point x="84" y="496" type="line"/>
      <point x="68" y="496" type="line"/>
    </contour>
  </outline>
</glyph>
<glyph name="el-cy" format="2">
  <advance width="374"/>
  <unicode hex="043B"/>
  <note>
uni043B
</note>
  <outline>
    <contour>
      <point x="22" y="0" type="line"/>
      <point x="77" y="0"/>
      <point x="81" y="70"/>
      <point x="83" y="92" type="curve" smooth="yes"/>
      <point x="118" y="479" type="line"/>
      <point x="290" y="479" type="line"/>
      <point x="290" y="1" type="line"/>
      <point x="306" y="1" type="line"/>
      <point x="306" y="495" type="line"/>
      <point x="102" y="495" type="line"/>
      <point x="67" y="94" type="line" smooth="yes"/>
      <point x="62" y="38"/>
      <point x="49" y="16"/>
      <point x="22" y="16" type="curve"/>
    </contour>
  </outline>
</glyph>
<glyph name="te-cy" format="2">
  <advance width="269"/>
  <unicode hex="0442"/>
  <note>
uni0442
</note>
  <outline>
    <contour>
      <point x="126" y="0" type="line"/>
      <point x="142" y="0" type="line"/>
      <point x="142" y="479" type="line"/>
      <point x="254" y="479" type="line"/>
      <point x="254" y="495" type="line"/>
      <point x="15" y="495" type="line"/>
      <point x="15" y="479" type="line"/>
      <point x="126" y="479" type="line"/>
    </contour>
  </outline>
</glyph>
<glyph name="u-cy" format="2">
  <advance width="297"/>
  <unicode hex="0443"/>
  <note>
uni0443
</note>
  <anchor x="202" y="0" name="bottom"/>
  <anchor x="147" y="495" name="top"/>
  <outline>
    <contour>
      <point x="52" y="-115" type="curve" smooth="yes"/>
      <point x="112" y="-115"/>
      <point x="140" y="-70"/>
      <point x="157" y="-1" type="curve" smooth="yes"/>
      <point x="278" y="495" type="line"/>
      <point x="262" y="495" type="line"/>
      <point x="148" y="27" type="line"/>
      <point x="35" y="495" type="line"/>
      <point x="19" y="495" type="line"/>
      <point x="140" y="-4" type="line"/>
      <point x="127" y="-82"/>
      <point x="83" y="-101"/>
      <point x="52" y="-101" type="curve" smooth="yes"/>
      <point x="29" y="-101"/>
      <point x="6" y="-96"/>
      <point x="3" y="-95" type="curve"/>
      <point x="3" y="-109" type="line"/>
      <point x="6" y="-110"/>
      <point x="32" y="-115"/>
    </contour>
  </outline>
</glyph>
<glyph name="ef-cy" format="2">
  <advance width="594"/>
  <unicode hex="0444"/>
  <note>
uni0444
</note>
  <outline>
    <contour>
      <point x="289" y="-116" type="line"/>
      <point x="305" y="-116" type="line"/>
      <point x="305" y="37" type="line"/>
      <point x="320" y="11"/>
      <point x="350" y="-7"/>
      <point x="409" y="-7" type="curve" smooth="yes"/>
      <point x="522" y="-7"/>
      <point x="533" y="62"/>
      <point x="533" y="124" type="curve" smooth="yes"/>
      <point x="533" y="315" type="line" smooth="yes"/>
      <point x="533" y="376"/>
      <point x="522" y="446"/>
      <point x="413" y="446" type="curve" smooth="yes"/>
      <point x="352" y="446"/>
      <point x="321" y="427"/>
      <point x="305" y="401" type="curve"/>
      <point x="305" y="591" type="line"/>
      <point x="289" y="591" type="line"/>
      <point x="289" y="398" type="line"/>
      <point x="273" y="426"/>
      <point x="243" y="446"/>
      <point x="185" y="446" type="curve" smooth="yes"/>
      <point x="66" y="446"/>
      <point x="61" y="376"/>
      <point x="61" y="315" type="curve" smooth="yes"/>
      <point x="61" y="124" type="line" smooth="yes"/>
      <point x="61" y="62"/>
      <point x="66" y="-7"/>
      <point x="181" y="-7" type="curve" smooth="yes"/>
      <point x="242" y="-7"/>
      <point x="273" y="13"/>
      <point x="289" y="41" type="curve"/>
    </contour>
    <contour>
      <point x="181" y="9" type="curve" smooth="yes"/>
      <point x="77" y="9"/>
      <point x="77" y="74"/>
      <point x="77" y="127" type="curve" smooth="yes"/>
      <point x="77" y="312" type="line" smooth="yes"/>
      <point x="77" y="365"/>
      <point x="77" y="430"/>
      <point x="185" y="430" type="curve" smooth="yes"/>
      <point x="284" y="430"/>
      <point x="289" y="365"/>
      <point x="289" y="312" type="curve" smooth="yes"/>
      <point x="289" y="127" type="line" smooth="yes"/>
      <point x="289" y="74"/>
      <point x="284" y="9"/>
    </contour>
    <contour>
      <point x="409" y="9" type="curve" smooth="yes"/>
      <point x="305" y="9"/>
      <point x="305" y="73"/>
      <point x="305" y="126" type="curve" smooth="yes"/>
      <point x="305" y="313" type="line" smooth="yes"/>
      <point x="305" y="366"/>
      <point x="305" y="430"/>
      <point x="413" y="430" type="curve" smooth="yes"/>
      <point x="512" y="430"/>
      <point x="517" y="365"/>
      <point x="517" y="312" type="curve" smooth="yes"/>
      <point x="517" y="127" type="line" smooth="yes"/>
      <point x="517" y="74"/>
      <point x="512" y="9"/>
    </contour>
  </outline>
</glyph>
<glyph name="che-cy" format="2">
  <advance width="348"/>
  <unicode hex="0447"/>
  <note>
uni0447
</note>
  <outline>
    <contour>
      <point x="264" y="0" type="line"/>
      <point x="280" y="0" type="line"/>
      <point x="280" y="495" type="line"/>
      <point x="264" y="495" type="line"/>
      <point x="264" y="265" type="line"/>
      <point x="259" y="208"/>
      <point x="238" y="167"/>
      <point x="165" y="167" type="curve" smooth="yes"/>
      <point x="85" y="167"/>
      <point x="82" y="232"/>
      <point x="82" y="291" type="curve" smooth="yes"/>
      <point x="82" y="495" type="line"/>
      <point x="66" y="495" type="line"/>
      <point x="66" y="282" type="line" smooth="yes"/>
      <point x="66" y="221"/>
      <point x="72" y="151"/>
      <point x="165" y="151" type="curve" smooth="yes"/>
      <point x="228" y="151"/>
      <point x="249" y="178"/>
      <point x="264" y="209" type="curve"/>
    </contour>
  </outline>
</glyph>
<glyph name="hardsign-cy" format="2">
  <advance width="376"/>
  <unicode hex="044A"/>
  <note>
uni044A
</note>
  <outline>
    <contour>
      <point x="93" y="0" type="line"/>
      <point x="217" y="0" type="line" smooth="yes"/>
      <point x="330" y="0"/>
      <point x="337" y="69"/>
      <point x="336" y="131" type="curve" smooth="yes"/>
      <point x="336" y="207" type="line" smooth="yes"/>
      <point x="335" y="268"/>
      <point x="330" y="338"/>
      <point x="217" y="338" type="curve" smooth="yes"/>
      <point x="108" y="338" type="line"/>
      <point x="108" y="495" type="line"/>
      <point x="93" y="495" type="line"/>
    </contour>
    <contour>
      <point x="108" y="15" type="line"/>
      <point x="108" y="323" type="line"/>
      <point x="213" y="323" type="line" smooth="yes"/>
      <point x="316" y="323"/>
      <point x="321" y="263"/>
      <point x="321" y="204" type="curve" smooth="yes"/>
      <point x="321" y="134" type="line" smooth="yes"/>
      <point x="321" y="75"/>
      <point x="316" y="15"/>
      <point x="213" y="15" type="curve" smooth="yes"/>
    </contour>
    <contour>
      <point x="5" y="479" type="line"/>
      <point x="105" y="479" type="line"/>
      <point x="105" y="495" type="line"/>
      <point x="5" y="495" type="line"/>
    </contour>
  </outline>
</glyph>
<glyph name="softsign-cy" format="2">
  <advance width="351"/>
  <unicode hex="044C"/>
  <note>
uni044C
</note>
  <outline>
    <contour>
      <point x="68" y="0" type="line"/>
      <point x="192" y="0" type="line" smooth="yes"/>
      <point x="305" y="0"/>
      <point x="311" y="69"/>
      <point x="311" y="131" type="curve" smooth="yes"/>
      <point x="311" y="207" type="line" smooth="yes"/>
      <point x="311" y="268"/>
      <point x="305" y="338"/>
      <point x="192" y="338" type="curve" smooth="yes"/>
      <point x="83" y="338" type="line"/>
      <point x="83" y="495" type="line"/>
      <point x="68" y="495" type="line"/>
    </contour>
    <contour>
      <point x="83" y="15" type="line"/>
      <point x="83" y="323" type="line"/>
      <point x="188" y="323" type="line" smooth="yes"/>
      <point x="291" y="323"/>
      <point x="296" y="263"/>
      <point x="296" y="204" type="curve" smooth="yes"/>
      <point x="296" y="134" type="line" smooth="yes"/>
      <point x="296" y="75"/>
      <point x="291" y="15"/>
      <point x="188" y="15" type="curve" smooth="yes"/>
    </contour>
  </outline>
</glyph>
<glyph name="ereversed-cy" format="2">
  <advance width="350"/>
  <unicode hex="044D"/>
  <note>
uni044D
</note>
  <outline>
    <contour>
      <point x="166" y="-7" type="curve" smooth="yes"/>
      <point x="285" y="-7"/>
      <point x="291" y="62"/>
      <point x="291" y="124" type="curve" smooth="yes"/>
      <point x="291" y="372" type="line" smooth="yes"/>
      <point x="291" y="433"/>
      <point x="285" y="503"/>
      <point x="166" y="503" type="curve" smooth="yes"/>
      <point x="53" y="503"/>
      <point x="47" y="433"/>
      <point x="47" y="372" type="curve" smooth="yes"/>
      <point x="47" y="328" type="line"/>
      <point x="63" y="328" type="line"/>
      <point x="63" y="369" type="line" smooth="yes"/>
      <point x="63" y="428"/>
      <point x="68" y="487"/>
      <point x="166" y="487" type="curve" smooth="yes"/>
      <point x="270" y="487"/>
      <point x="275" y="428"/>
      <point x="275" y="369" type="curve" smooth="yes"/>
      <point x="275" y="258" type="line"/>
      <point x="114" y="258" type="line"/>
      <point x="114" y="242" type="line"/>
      <point x="275" y="242" type="line"/>
      <point x="275" y="127" type="line" smooth="yes"/>
      <point x="275" y="68"/>
      <point x="270" y="9"/>
      <point x="166" y="9" type="curve" smooth="yes"/>
      <point x="68" y="9"/>
      <point x="63" y="68"/>
      <point x="63" y="127" type="curve" smooth="yes"/>
      <point x="63" y="167" type="line"/>
      <point x="47" y="167" type="line"/>
      <point x="47" y="124" type="line" smooth="yes"/>
      <point x="47" y="62"/>
      <point x="53" y="-7"/>
    </contour>
  </outline>
</glyph>
<glyph name="e-cy" format="2">
  <advance width="350"/>
  <unicode hex="0454"/>
  <note>
uni0454
</note>
  <outline>
    <contour>
      <point x="184" y="-7" type="curve" smooth="yes"/>
      <point x="297" y="-7"/>
      <point x="303" y="62"/>
      <point x="303" y="124" type="curve" smooth="yes"/>
      <point x="303" y="167" type="line"/>
      <point x="287" y="167" type="line"/>
      <point x="287" y="127" type="line" smooth="yes"/>
      <point x="287" y="68"/>
      <point x="282" y="9"/>
      <point x="184" y="9" type="curve" smooth="yes"/>
      <point x="80" y="9"/>
      <point x="75" y="68"/>
      <point x="75" y="127" type="curve" smooth="yes"/>
      <point x="75" y="242" type="line"/>
      <point x="236" y="242" type="line"/>
      <point x="236" y="258" type="line"/>
      <point x="75" y="258" type="line"/>
      <point x="75" y="369" type="line" smooth="yes"/>
      <point x="75" y="428"/>
      <point x="80" y="487"/>
      <point x="184" y="487" type="curve" smooth="yes"/>
      <point x="282" y="487"/>
      <point x="287" y="428"/>
      <point x="287" y="369" type="curve" smooth="yes"/>
      <point x="287" y="328" type="line"/>
      <point x="303" y="328" type="line"/>
      <point x="303" y="372" type="line" smooth="yes"/>
      <point x="303" y="433"/>
      <point x="297" y="503"/>
      <point x="184" y="503" type="curve" smooth="yes"/>
      <point x="65" y="503"/>
      <point x="59" y="433"/>
      <point x="59" y="372" type="curve" smooth="yes"/>
      <point x="59" y="124" type="line" smooth="yes"/>
      <point x="59" y="62"/>
      <point x="65" y="-7"/>
    </contour>
  </outline>
</glyph>
<glyph name="lje-cy" format="2">
  <advance width="551"/>
  <unicode hex="0459"/>
  <note>
uni0459
</note>
  <outline>
    <contour>
      <point x="22" y="0" type="line"/>
      <point x="77" y="0"/>
      <point x="81" y="66"/>
      <point x="83" y="92" type="curve" smooth="yes"/>
      <point x="116" y="479" type="line"/>
      <point x="270" y="479" type="line"/>
      <point x="263" y="495" type="line"/>
      <point x="102" y="495" type="line"/>
      <point x="67" y="92" type="line" smooth="yes"/>
      <point x="62" y="36"/>
      <point x="49" y="15"/>
      <point x="22" y="15" type="curve"/>
    </contour>
    <contour>
      <point x="283" y="15" type="line"/>
      <point x="283" y="323" type="line"/>
      <point x="388" y="323" type="line" smooth="yes"/>
      <point x="491" y="323"/>
      <point x="496" y="263"/>
      <point x="496" y="204" type="curve" smooth="yes"/>
      <point x="496" y="134" type="line" smooth="yes"/>
      <point x="496" y="75"/>
      <point x="491" y="15"/>
      <point x="388" y="15" type="curve" smooth="yes"/>
    </contour>
    <contour>
      <point x="268" y="0" type="line"/>
      <point x="392" y="0" type="line" smooth="yes"/>
      <point x="505" y="0"/>
      <point x="511" y="69"/>
      <point x="511" y="131" type="curve" smooth="yes"/>
      <point x="511" y="207" type="line" smooth="yes"/>
      <point x="511" y="268"/>
      <point x="505" y="338"/>
      <point x="392" y="338" type="curve" smooth="yes"/>
      <point x="283" y="338" type="line"/>
      <point x="283" y="495" type="line"/>
      <point x="268" y="495" type="line"/>
    </contour>
    <contour>
      <point x="180" y="479" type="line"/>
      <point x="280" y="479" type="line"/>
      <point x="280" y="495" type="line"/>
      <point x="180" y="495" type="line"/>
    </contour>
  </outline>
</glyph>
<glyph name="ushort-cy" format="2">
  <advance width="297"/>
  <unicode hex="045E"/>
  <note>
uni045E
</note>
  <anchor x="202" y="0" name="bottom"/>
  <anchor x="147" y="591" name="top"/>
  <outline>
    <contour>
      <point x="52" y="-115" type="curve" smooth="yes"/>
      <point x="112" y="-115"/>
      <point x="140" y="-70"/>
      <point x="157" y="-1" type="curve" smooth="yes"/>
      <point x="278" y="495" type="line"/>
      <point x="262" y="495" type="line"/>
      <point x="148" y="27" type="line"/>
      <point x="35" y="495" type="line"/>
      <point x="19" y="495" type="line"/>
      <point x="140" y="-4" type="line"/>
      <point x="127" y="-82"/>
      <point x="83" y="-101"/>
      <point x="52" y="-101" type="curve" smooth="yes"/>
      <point x="29" y="-101"/>
      <point x="6" y="-96"/>
      <point x="3" y="-95" type="curve"/>
      <point x="3" y="-109" type="line"/>
      <point x="6" y="-110"/>
      <point x="32" y="-115"/>
    </contour>
    <contour>
      <point x="145" y="546" type="curve" smooth="yes"/>
      <point x="204" y="546"/>
      <point x="235" y="585"/>
      <point x="235" y="623" type="curve"/>
      <point x="219" y="623" type="line"/>
      <point x="219" y="582"/>
      <point x="181" y="562"/>
      <point x="146" y="562" type="curve" smooth="yes"/>
      <point x="112" y="562"/>
      <point x="85" y="579"/>
      <point x="84" y="623" type="curve"/>
      <point x="68" y="623" type="line"/>
      <point x="68" y="586"/>
      <point x="87" y="546"/>
    </contour>
  </outline>
</glyph>
<glyph name="dzhe-cy" format="2">
  <advance width="377"/>
  <unicode hex="045F"/>
  <note>
uni045F
</note>
  <outline>
    <contour>
      <point x="68" y="0" type="line"/>
      <point x="309" y="0" type="line"/>
      <point x="309" y="495" type="line"/>
      <point x="293" y="495" type="line"/>
      <point x="293" y="16" type="line"/>
      <point x="84" y="16" type="line"/>
      <point x="84" y="495" type="line"/>
      <point x="68" y="495" type="line"/>
    </contour>
    <contour>
      <point x="182" y="-113" type="line"/>
      <point x="198" y="-113" type="line"/>
      <point x="198" y="5" type="line"/>
      <point x="182" y="5" type="line"/>
    </contour>
  </outline>
</glyph>
<glyph name="Yat-cy" format="2">
  <advance width="387"/>
  <unicode hex="0462"/>
  <outline>
    <contour>
      <point x="85" y="0" type="line"/>
      <point x="209" y="0" type="line" smooth="yes"/>
      <point x="322" y="0"/>
      <point x="328" y="69"/>
      <point x="328" y="131" type="curve" smooth="yes"/>
      <point x="328" y="304" type="line" smooth="yes"/>
      <point x="328" y="365"/>
      <point x="322" y="435"/>
      <point x="209" y="435" type="curve" smooth="yes"/>
      <point x="100" y="435" type="line"/>
      <point x="100" y="588" type="line"/>
      <point x="85" y="588" type="line"/>
    </contour>
    <contour>
      <point x="84" y="0" type="line"/>
      <point x="100" y="0" type="line"/>
      <point x="100" y="591" type="line"/>
      <point x="84" y="591" type="line"/>
    </contour>
    <contour>
      <point x="100" y="15" type="line"/>
      <point x="100" y="420" type="line"/>
      <point x="205" y="420" type="line" smooth="yes"/>
      <point x="308" y="420"/>
      <point x="313" y="360"/>
      <point x="313" y="301" type="curve" smooth="yes"/>
      <point x="313" y="134" type="line" smooth="yes"/>
      <point x="313" y="75"/>
      <point x="308" y="15"/>
      <point x="205" y="15" type="curve" smooth="yes"/>
    </contour>
    <contour>
      <point x="-3.019" y="519.875" type="line"/>
      <point x="247.504" y="519.875" type="line"/>
      <point x="247.504" y="535.735" type="line"/>
      <point x="-3.019" y="535.735" type="line"/>
    </contour>
  </outline>
</glyph>
<glyph name="yat-cy" format="2">
  <advance width="351"/>
  <unicode hex="0463"/>
  <outline>
    <contour>
      <point x="68" y="0" type="line"/>
      <point x="192" y="0" type="line" smooth="yes"/>
      <point x="305" y="0"/>
      <point x="311" y="69"/>
      <point x="311" y="131" type="curve" smooth="yes"/>
      <point x="311" y="207" type="line" smooth="yes"/>
      <point x="311" y="268"/>
      <point x="305" y="338"/>
      <point x="192" y="338" type="curve" smooth="yes"/>
      <point x="83" y="338" type="line"/>
      <point x="83" y="495" type="line"/>
      <point x="68" y="495" type="line"/>
    </contour>
    <contour>
      <point x="83" y="15" type="line"/>
      <point x="83" y="323" type="line"/>
      <point x="188" y="323" type="line" smooth="yes"/>
      <point x="291" y="323"/>
      <point x="296" y="263"/>
      <point x="296" y="204" type="curve" smooth="yes"/>
      <point x="296" y="134" type="line" smooth="yes"/>
      <point x="296" y="75"/>
      <point x="291" y="15"/>
      <point x="188" y="15" type="curve" smooth="yes"/>
    </contour>
    <contour>
      <point x="12.661" y="400.619" type="line"/>
      <point x="194.291" y="400.619" type="line"/>
      <point x="194.291" y="416.462" type="line"/>
      <point x="12.661" y="416.462" type="line"/>
    </contour>
  </outline>
</glyph>
<glyph name="yusbig-cy" format="2">
  <advance width="558"/>
  <unicode hex="046B"/>
  <outline>
    <contour>
      <point x="44" y="0" type="line"/>
      <point x="61" y="0" type="line"/>
      <point x="117" y="187" type="line" smooth="yes"/>
      <point x="127" y="221"/>
      <point x="143" y="259"/>
      <point x="185" y="259" type="curve" smooth="yes"/>
      <point x="374" y="259" type="line" smooth="yes"/>
      <point x="416" y="258"/>
      <point x="433" y="221"/>
      <point x="443" y="187" type="curve" smooth="yes"/>
      <point x="498" y="0" type="line"/>
      <point x="515" y="0" type="line"/>
      <point x="459" y="189" type="line" smooth="yes"/>
      <point x="447" y="230"/>
      <point x="436" y="272"/>
      <point x="376" y="272" type="curve" smooth="yes"/>
      <point x="303" y="272" type="line"/>
      <point x="533" y="479" type="line"/>
      <point x="533" y="495" type="line"/>
      <point x="25" y="495" type="line"/>
      <point x="25" y="479" type="line"/>
      <point x="254" y="272" type="line"/>
      <point x="180" y="272" type="line" smooth="yes"/>
      <point x="127" y="272"/>
      <point x="112" y="230"/>
      <point x="100" y="189" type="curve" smooth="yes"/>
    </contour>
    <contour>
      <point x="273" y="0" type="line"/>
      <point x="289" y="0" type="line"/>
      <point x="289" y="591" type="line"/>
      <point x="273" y="591" type="line"/>
    </contour>
    <contour>
      <point x="280" y="272" type="line"/>
      <point x="48" y="479" type="line"/>
      <point x="509" y="479" type="line"/>
    </contour>
  </outline>
</glyph>
<glyph name="emdash" format="2">
  <advance width="455"/>
  <unicode hex="2014"/>
  <note>
emdash
</note>
  <outline>
    <contour>
      <point x="45" y="244" type="line"/>
      <point x="410" y="244" type="line"/>
      <point x="410" y="260" type="line"/>
      <point x="45" y="260" type="line"/>
    </contour>
  </outline>
</glyph>
<glyph name="second" format="2">
  <advance width="192"/>
  <unicode hex="2033"/>
  <outline>
    <contour>
      <point x="111" y="496" type="line"/>
      <point x="118" y="496" type="line"/>
      <point x="162" y="619" type="line"/>
      <point x="143" y="619" type="line"/>
    </contour>
    <contour>
      <point x="30" y="496" type="line"/>
      <point x="37" y="496" type="line"/>
      <point x="81" y="619" type="line"/>
      <point x="62" y="619" type="line"/>
    </contour>
  </outline>
</glyph>
<glyph name="guilsinglleft" format="2">
  <advance width="234"/>
  <unicode hex="2039"/>
  <note>
guilsinglleft
</note>
  <outline>
    <contour>
      <point x="168" y="115" type="line"/>
      <point x="182" y="115" type="line"/>
      <point x="68" y="284" type="line"/>
      <point x="194" y="468" type="line"/>
      <point x="180" y="468" type="line"/>
      <point x="50" y="284" type="line"/>
    </contour>
  </outline>
</glyph>
<glyph name="fraction" format="2">
  <advance width="238"/>
  <unicode hex="2044"/>
  <note>
fraction
</note>
  <outline>
    <contour>
      <point x="-50" y="0" type="line"/>
      <point x="-33" y="0" type="line"/>
      <point x="288" y="585" type="line"/>
      <point x="269" y="585" type="line"/>
    </contour>
  </outline>
</glyph>
<glyph name="foursuperior" format="2">
  <advance width="261"/>
  <unicode hex="2074"/>
  <outline>
    <contour>
      <point x="169" y="242" type="line"/>
      <point x="185" y="242" type="line"/>
      <point x="185" y="313" type="line"/>
      <point x="226" y="313" type="line"/>
      <point x="226" y="329" type="line"/>
      <point x="185" y="329" type="line"/>
      <point x="185" y="597" type="line"/>
      <point x="171" y="597" type="line"/>
      <point x="33" y="322" type="line"/>
      <point x="33" y="313" type="line"/>
      <point x="169" y="313" type="line"/>
    </contour>
    <contour>
      <point x="53" y="329" type="line"/>
      <point x="169" y="560" type="line"/>
      <point x="169" y="329" type="line"/>
    </contour>
  </outline>
</glyph>
<glyph name="euro" format="2">
  <advance width="468"/>
  <unicode hex="20AC"/>
  <note>
Euro
</note>
  <outline>
    <contour>
      <point x="262" y="-12" type="curve" smooth="yes"/>
      <point x="346" y="-12"/>
      <point x="404" y="2"/>
      <point x="404" y="118" type="curve" smooth="yes"/>
      <point x="404" y="172" type="line"/>
      <point x="388" y="172" type="line"/>
      <point x="388" y="122" type="line" smooth="yes"/>
      <point x="388" y="18"/>
      <point x="333" y="3"/>
      <point x="263" y="3" type="curve" smooth="yes"/>
      <point x="194" y="3"/>
      <point x="139" y="18"/>
      <point x="139" y="122" type="curve" smooth="yes"/>
      <point x="139" y="239" type="line"/>
      <point x="255" y="239" type="line"/>
      <point x="261" y="255" type="line"/>
      <point x="139" y="255" type="line"/>
      <point x="139" y="332" type="line"/>
      <point x="298" y="332" type="line"/>
      <point x="303" y="348" type="line"/>
      <point x="139" y="348" type="line"/>
      <point x="139" y="461" type="line" smooth="yes"/>
      <point x="139" y="566"/>
      <point x="188" y="583"/>
      <point x="263" y="583" type="curve" smooth="yes"/>
      <point x="321" y="583"/>
      <point x="371" y="568"/>
      <point x="371" y="467" type="curve" smooth="yes"/>
      <point x="371" y="452" type="line"/>
      <point x="387" y="469" type="line"/>
      <point x="387" y="583"/>
      <point x="324" y="599"/>
      <point x="264" y="599" type="curve" smooth="yes"/>
      <point x="183" y="599"/>
      <point x="123" y="585"/>
      <point x="123" y="469" type="curve" smooth="yes"/>
      <point x="123" y="348" type="line"/>
      <point x="50" y="348" type="line"/>
      <point x="45" y="332" type="line"/>
      <point x="123" y="332" type="line"/>
      <point x="123" y="255" type="line"/>
      <point x="51" y="255" type="line"/>
      <point x="45" y="239" type="line"/>
      <point x="123" y="239" type="line"/>
      <point x="123" y="118" type="line" smooth="yes"/>
      <point x="123" y="4"/>
      <point x="182" y="-12"/>
    </contour>
  </outline>
</glyph>
<glyph name="peso" format="2">
  <advance width="411"/>
  <unicode hex="20B1"/>
  <outline>
    <contour>
      <point x="85" y="0" type="line"/>
      <point x="101" y="0" type="line"/>
      <point x="101" y="271" type="line"/>
      <point x="212" y="271" type="line" smooth="yes"/>
      <point x="334" y="271"/>
      <point x="361" y="313"/>
      <point x="361" y="418" type="curve" smooth="yes"/>
      <point x="361" y="494" type="line" smooth="yes"/>
      <point x="361" y="569"/>
      <point x="317" y="591"/>
      <point x="237" y="591" type="curve" smooth="yes"/>
      <point x="85" y="591" type="line"/>
    </contour>
    <contour>
      <point x="40" y="375" type="line"/>
      <point x="406" y="375" type="line"/>
      <point x="406" y="390" type="line"/>
      <point x="40" y="390" type="line"/>
    </contour>
    <contour>
      <point x="101" y="287" type="line"/>
      <point x="101" y="575" type="line"/>
      <point x="236" y="575" type="line" smooth="yes"/>
      <point x="321" y="575"/>
      <point x="345" y="551"/>
      <point x="345" y="471" type="curve" smooth="yes"/>
      <point x="345" y="417" type="line" smooth="yes"/>
      <point x="345" y="320"/>
      <point x="321" y="287"/>
      <point x="212" y="287" type="curve" smooth="yes"/>
    </contour>
    <contour>
      <point x="40" y="465" type="line"/>
      <point x="406" y="465" type="line"/>
      <point x="406" y="480" type="line"/>
      <point x="40" y="480" type="line"/>
    </contour>
  </outline>
</glyph>
<glyph name="guarani" format="2">
  <advance width="410"/>
  <unicode hex="20B2"/>
  <outline>
    <contour>
      <point x="198" y="-81" type="line"/>
      <point x="214" y="-81" type="line"/>
      <point x="214" y="-12" type="line"/>
      <point x="271" y="-9"/>
      <point x="317" y="29"/>
      <point x="328" y="63" type="curve"/>
      <point x="328" y="0" type="line"/>
      <point x="344" y="0" type="line"/>
      <point x="344" y="271" type="line"/>
      <point x="214" y="271" type="line"/>
      <point x="214" y="583" type="line"/>
      <point x="287" y="582"/>
      <point x="328" y="563"/>
      <point x="328" y="468" type="curve" smooth="yes"/>
      <point x="328" y="401" type="line"/>
      <point x="344" y="401" type="line"/>
      <point x="344" y="469" type="line" smooth="yes"/>
      <point x="344" y="581"/>
      <point x="292" y="598"/>
      <point x="214" y="599" type="curve"/>
      <point x="214" y="660" type="line"/>
      <point x="198" y="660" type="line"/>
      <point x="198" y="599" type="line"/>
      <point x="124" y="597"/>
      <point x="67" y="580"/>
      <point x="67" y="469" type="curve" smooth="yes"/>
      <point x="67" y="118" type="line" smooth="yes"/>
      <point x="67" y="8"/>
      <point x="126" y="-11"/>
      <point x="198" y="-12" type="curve"/>
    </contour>
    <contour>
      <point x="214" y="4" type="curve"/>
      <point x="214" y="256" type="line"/>
      <point x="328" y="256" type="line"/>
      <point x="328" y="125" type="line" smooth="yes"/>
      <point x="328" y="52"/>
      <point x="279" y="7"/>
    </contour>
    <contour>
      <point x="198" y="4" type="line"/>
      <point x="133" y="5"/>
      <point x="83" y="23"/>
      <point x="83" y="125" type="curve" smooth="yes"/>
      <point x="83" y="468" type="line" smooth="yes"/>
      <point x="83" y="562"/>
      <point x="126" y="582"/>
      <point x="198" y="583" type="curve"/>
    </contour>
  </outline>
</glyph>
<glyph name="rupeeIndian" format="2">
  <advance width="442"/>
  <unicode hex="20B9"/>
  <outline>
    <contour>
      <point x="322" y="0" type="line"/>
      <point x="341" y="0" type="line"/>
      <point x="272" y="224" type="line" smooth="yes"/>
      <point x="262" y="256"/>
      <point x="243" y="287"/>
      <point x="225" y="292" type="curve"/>
      <point x="274" y="296"/>
      <point x="325" y="328"/>
      <point x="325" y="411" type="curve" smooth="yes"/>
      <point x="325" y="428" type="line"/>
      <point x="397" y="428" type="line"/>
      <point x="397" y="444" type="line"/>
      <point x="325" y="444" type="line"/>
      <point x="325" y="494" type="line" smooth="yes"/>
      <point x="325" y="535"/>
      <point x="309" y="560"/>
      <point x="285" y="575" type="curve"/>
      <point x="397" y="575" type="line"/>
      <point x="397" y="591" type="line"/>
      <point x="50" y="591" type="line"/>
      <point x="50" y="575" type="line"/>
      <point x="222" y="575" type="line" smooth="yes"/>
      <point x="271" y="575"/>
      <point x="308" y="548"/>
      <point x="308" y="491" type="curve" smooth="yes"/>
      <point x="308" y="444" type="line"/>
      <point x="50" y="444" type="line"/>
      <point x="50" y="428" type="line"/>
      <point x="308" y="428" type="line"/>
      <point x="308" y="409" type="line" smooth="yes"/>
      <point x="308" y="331"/>
      <point x="257" y="303"/>
      <point x="189" y="303" type="curve" smooth="yes"/>
      <point x="80" y="303" type="line"/>
      <point x="80" y="287" type="line"/>
      <point x="189" y="287" type="line" smooth="yes"/>
      <point x="224" y="287"/>
      <point x="245" y="257"/>
      <point x="261" y="205" type="curve" smooth="yes"/>
    </contour>
  </outline>
</glyph>
<glyph name="liraTurkish" format="2">
  <advance width="438"/>
  <unicode hex="20BA"/>
  <outline>
    <contour>
      <point x="171" y="0" type="curve" smooth="yes"/>
      <point x="256" y="0" type="line" smooth="yes"/>
      <point x="371" y="0"/>
      <point x="378" y="50"/>
      <point x="377" y="123" type="curve" smooth="yes"/>
      <point x="377" y="405" type="line"/>
      <point x="361" y="405" type="line"/>
      <point x="361" y="122" type="line" smooth="yes"/>
      <point x="361" y="53"/>
      <point x="353" y="16"/>
      <point x="252" y="16" type="curve" smooth="yes"/>
      <point x="169" y="17" type="line" smooth="yes"/>
      <point x="149" y="17"/>
      <point x="147" y="25"/>
      <point x="147" y="66" type="curve" smooth="yes"/>
      <point x="147" y="227" type="line"/>
      <point x="246" y="256" type="line"/>
      <point x="245" y="273" type="line"/>
      <point x="147" y="244" type="line"/>
      <point x="146" y="335" type="line"/>
      <point x="246" y="364" type="line"/>
      <point x="245" y="381" type="line"/>
      <point x="146" y="352" type="line"/>
      <point x="146" y="591" type="line"/>
      <point x="130" y="591" type="line"/>
      <point x="130" y="347" type="line"/>
      <point x="45" y="322" type="line"/>
      <point x="46" y="305" type="line"/>
      <point x="130" y="330" type="line"/>
      <point x="131" y="239" type="line"/>
      <point x="45" y="214" type="line"/>
      <point x="46" y="197" type="line"/>
      <point x="131" y="222" type="line"/>
      <point x="131" y="55" type="line" smooth="yes"/>
      <point x="131" y="3"/>
      <point x="141" y="0"/>
    </contour>
  </outline>
</glyph>
<glyph name="ruble" format="2">
  <advance width="396"/>
  <unicode hex="20BD"/>
  <note>
ruble
</note>
  <outline>
    <contour>
      <point x="85" y="0" type="line"/>
      <point x="101" y="0" type="line"/>
      <point x="101" y="271" type="line"/>
      <point x="212" y="271" type="line" smooth="yes"/>
      <point x="334" y="271"/>
      <point x="361" y="313"/>
      <point x="361" y="418" type="curve" smooth="yes"/>
      <point x="361" y="494" type="line" smooth="yes"/>
      <point x="361" y="569"/>
      <point x="317" y="591"/>
      <point x="237" y="591" type="curve" smooth="yes"/>
      <point x="85" y="591" type="line"/>
    </contour>
    <contour>
      <point x="40" y="129" type="line"/>
      <point x="242" y="129" type="line"/>
      <point x="242" y="145" type="line"/>
      <point x="40" y="145" type="line"/>
    </contour>
    <contour>
      <point x="101" y="287" type="line"/>
      <point x="101" y="575" type="line"/>
      <point x="236" y="575" type="line" smooth="yes"/>
      <point x="321" y="575"/>
      <point x="345" y="551"/>
      <point x="345" y="471" type="curve" smooth="yes"/>
      <point x="345" y="417" type="line" smooth="yes"/>
      <point x="345" y="320"/>
      <point x="321" y="287"/>
      <point x="212" y="287" type="curve" smooth="yes"/>
    </contour>
  </outline>
</glyph>
<glyph name="estimated" format="2">
  <advance width="543"/>
  <unicode hex="212E"/>
  <note>
estimated
</note>
  <outline>
    <contour>
      <point x="271" y="-8" type="curve" smooth="yes"/>
      <point x="404" y="-8"/>
      <point x="462" y="63"/>
      <point x="489" y="120" type="curve"/>
      <point x="476" y="120" type="line"/>
      <point x="434" y="52"/>
      <point x="382" y="5"/>
      <point x="271" y="5" type="curve" smooth="yes"/>
      <point x="191" y="5"/>
      <point x="102" y="54"/>
      <point x="102" y="107" type="curve" smooth="yes"/>
      <point x="102" y="233" type="line"/>
      <point x="105" y="237" type="line"/>
      <point x="493" y="237" type="line"/>
      <point x="490" y="392"/>
      <point x="455" y="495"/>
      <point x="271" y="495" type="curve" smooth="yes"/>
      <point x="100" y="495"/>
      <point x="50" y="382"/>
      <point x="50" y="243" type="curve" smooth="yes"/>
      <point x="50" y="103"/>
      <point x="108" y="-8"/>
    </contour>
    <contour>
      <point x="105" y="251" type="line"/>
      <point x="102" y="255" type="line"/>
      <point x="102" y="382" type="line" smooth="yes"/>
      <point x="102" y="440"/>
      <point x="186" y="483"/>
      <point x="271" y="483" type="curve" smooth="yes"/>
      <point x="362" y="483"/>
      <point x="441" y="441"/>
      <point x="441" y="383" type="curve" smooth="yes"/>
      <point x="441" y="255" type="line"/>
      <point x="440" y="251" type="line"/>
    </contour>
  </outline>
</glyph>
<glyph name="upArrow" format="2">
  <advance width="505"/>
  <unicode hex="2191"/>
  <outline>
    <contour>
      <point x="244" y="0" type="line"/>
      <point x="260" y="0" type="line"/>
      <point x="260" y="664" type="line"/>
      <point x="443" y="483" type="line"/>
      <point x="455" y="494" type="line"/>
      <point x="253" y="697" type="line"/>
      <point x="50" y="490" type="line"/>
      <point x="62" y="478" type="line"/>
      <point x="244" y="664" type="line"/>
    </contour>
  </outline>
</glyph>
<glyph name="northWestArrow" format="2">
  <advance width="599"/>
  <unicode hex="2196"/>
  <outline>
    <contour>
      <point x="538" y="93" type="line"/>
      <point x="549" y="104" type="line"/>
      <point x="79" y="574" type="line"/>
      <point x="340" y="571" type="line"/>
      <point x="340" y="588" type="line"/>
      <point x="50" y="591" type="line"/>
      <point x="50" y="304" type="line"/>
      <point x="67" y="305" type="line"/>
      <point x="68" y="562" type="line"/>
    </contour>
  </outline>
</glyph>
<glyph name="southEastArrow" format="2">
  <advance width="598"/>
  <unicode hex="2198"/>
  <outline>
    <contour>
      <point x="261" y="0" type="line"/>
      <point x="548" y="0" type="line"/>
      <point x="545" y="290" type="line"/>
      <point x="528" y="290" type="line"/>
      <point x="531" y="29" type="line"/>
      <point x="61" y="499" type="line"/>
      <point x="50" y="488" type="line"/>
      <point x="519" y="18" type="line"/>
      <point x="261" y="17" type="line"/>
    </contour>
  </outline>
</glyph>
<glyph name="increment" format="2">
  <advance width="449"/>
  <unicode hex="2206"/>
  <note>
Delta
</note>
  <outline>
    <contour>
      <point x="25" y="0" type="line"/>
      <point x="424" y="0" type="line"/>
      <point x="236" y="585" type="line"/>
      <point x="217" y="585" type="line"/>
    </contour>
    <contour>
      <point x="47" y="16" type="line"/>
      <point x="226" y="564" type="line"/>
      <point x="402" y="16" type="line"/>
    </contour>
  </outline>
</glyph>
<glyph name="product" format="2">
  <advance width="651"/>
  <unicode hex="220F"/>
  <note>
product
</note>
  <outline>
    <contour>
      <point x="189" y="-70" type="line"/>
      <point x="205" y="-70" type="line"/>
      <point x="205" y="529" type="line"/>
      <point x="454" y="529" type="line"/>
      <point x="454" y="-70" type="line"/>
      <point x="470" y="-70" type="line"/>
      <point x="470" y="529" type="line"/>
      <point x="621" y="529" type="line"/>
      <point x="621" y="545" type="line"/>
      <point x="30" y="545" type="line"/>
      <point x="30" y="529" type="line"/>
      <point x="189" y="529" type="line"/>
    </contour>
  </outline>
</glyph>
<glyph name="bulletoperator" format="2">
  <advance width="173"/>
  <unicode hex="2219"/>
  <outline>
    <contour>
      <point x="86.002" y="246.589" type="curve" smooth="yes"/>
      <point x="107.083" y="246.589"/>
      <point x="122.894" y="262.4"/>
      <point x="122.894" y="282.896" type="curve" smooth="yes"/>
      <point x="122.894" y="303.392"/>
      <point x="106.498" y="319.203"/>
      <point x="87.173" y="319.203" type="curve" smooth="yes"/>
      <point x="66.091" y="319.203"/>
      <point x="50.28" y="303.392"/>
      <point x="50.28" y="282.896" type="curve" smooth="yes"/>
      <point x="50.866" y="261.814"/>
      <point x="66.677" y="246.589"/>
    </contour>
  </outline>
</glyph>
<glyph name="radical" format="2">
  <advance width="570"/>
  <unicode hex="221A"/>
  <note>
radical
</note>
  <outline>
    <contour>
      <point x="268" y="-76" type="line"/>
      <point x="288" y="-76" type="line"/>
      <point x="520" y="612" type="line"/>
      <point x="502" y="612" type="line"/>
      <point x="279" y="-56" type="line"/>
      <point x="176" y="345" type="line"/>
      <point x="50" y="284" type="line"/>
      <point x="50" y="268" type="line"/>
      <point x="165" y="322" type="line"/>
    </contour>
  </outline>
</glyph>
<glyph name="infinity" format="2">
  <advance width="727"/>
  <unicode hex="221E"/>
  <note>
infinity
</note>
  <outline>
    <contour>
      <point x="560" y="103" type="curve" smooth="yes"/>
      <point x="634" y="103"/>
      <point x="677" y="155"/>
      <point x="677" y="241" type="curve" smooth="yes"/>
      <point x="677" y="327"/>
      <point x="632" y="379"/>
      <point x="559" y="379" type="curve" smooth="yes"/>
      <point x="475" y="379"/>
      <point x="426" y="319"/>
      <point x="360" y="250" type="curve"/>
      <point x="307" y="306"/>
      <point x="252" y="379"/>
      <point x="167" y="379" type="curve" smooth="yes"/>
      <point x="94" y="379"/>
      <point x="50" y="326"/>
      <point x="50" y="239" type="curve" smooth="yes"/>
      <point x="50" y="155"/>
      <point x="95" y="104"/>
      <point x="168" y="104" type="curve" smooth="yes"/>
      <point x="252" y="104"/>
      <point x="315" y="178"/>
      <point x="360" y="226" type="curve"/>
      <point x="414" y="170"/>
      <point x="475" y="103"/>
    </contour>
    <contour>
      <point x="168" y="120" type="curve" smooth="yes"/>
      <point x="104" y="120"/>
      <point x="66" y="164"/>
      <point x="66" y="239" type="curve" smooth="yes"/>
      <point x="66" y="317"/>
      <point x="104" y="363"/>
      <point x="167" y="363" type="curve" smooth="yes"/>
      <point x="245" y="363"/>
      <point x="296" y="296"/>
      <point x="349" y="238" type="curve"/>
      <point x="304" y="189"/>
      <point x="245" y="120"/>
    </contour>
    <contour>
      <point x="560" y="119" type="curve" smooth="yes"/>
      <point x="482" y="119"/>
      <point x="425" y="180"/>
      <point x="372" y="238" type="curve"/>
      <point x="438" y="308"/>
      <point x="482" y="363"/>
      <point x="559" y="363" type="curve" smooth="yes"/>
      <point x="623" y="363"/>
      <point x="661" y="318"/>
      <point x="661" y="241" type="curve" smooth="yes"/>
      <point x="661" y="163"/>
      <point x="624" y="119"/>
    </contour>
  </outline>
</glyph>
<glyph name="notequal" format="2">
  <advance width="383"/>
  <unicode hex="2260"/>
  <note>
notequal
</note>
  <outline>
    <contour>
      <point x="50" y="0" type="line"/>
      <point x="67" y="0" type="line"/>
      <point x="157" y="177" type="line"/>
      <point x="331" y="177" type="line"/>
      <point x="331" y="193" type="line"/>
      <point x="166" y="193" type="line"/>
      <point x="266" y="390" type="line"/>
      <point x="331" y="390" type="line"/>
      <point x="331" y="406" type="line"/>
      <point x="275" y="406" type="line"/>
      <point x="333" y="520" type="line"/>
      <point x="315" y="520" type="line"/>
      <point x="257" y="406" type="line"/>
      <point x="53" y="406" type="line"/>
      <point x="53" y="390" type="line"/>
      <point x="248" y="390" type="line"/>
      <point x="148" y="193" type="line"/>
      <point x="53" y="193" type="line"/>
      <point x="53" y="177" type="line"/>
      <point x="139" y="177" type="line"/>
    </contour>
  </outline>
</glyph>
<glyph name="leftanglebracket-math" format="2">
  <advance width="250"/>
  <unicode hex="27E8"/>
  <outline>
    <contour>
      <point x="186" y="-142" type="line"/>
      <point x="200" y="-142" type="line"/>
      <point x="70" y="233" type="line"/>
      <point x="210" y="628" type="line"/>
      <point x="196" y="628" type="line"/>
      <point x="50" y="233" type="line"/>
    </contour>
  </outline>
</glyph>
<glyph name="rightanglebracket-math" format="2">
  <advance width="250"/>
  <unicode hex="27E9"/>
  <outline>
    <contour>
      <point x="50" y="-142" type="line"/>
      <point x="64" y="-142" type="line"/>
      <point x="200" y="233" type="line"/>
      <point x="54" y="628" type="line"/>
      <point x="40" y="628" type="line"/>
      <point x="180" y="233" type="line"/>
    </contour>
  </outline>
</glyph>
<glyph name=".notdef" format="2">
  <advance width="538"/>
  <note>
.notdef
</note>
  <outline>
    <contour>
      <point x="58" y="0" type="line"/>
      <point x="479" y="0" type="line"/>
      <point x="488" y="8" type="line"/>
      <point x="488" y="621" type="line"/>
      <point x="479" y="630" type="line"/>
      <point x="58" y="630" type="line"/>
      <point x="50" y="620" type="line"/>
      <point x="50" y="9" type="line"/>
    </contour>
    <contour>
      <point x="173" y="116" type="line"/>
      <point x="154" y="150" type="line"/>
      <point x="244" y="316" type="line"/>
      <point x="154" y="479" type="line"/>
      <point x="173" y="514" type="line"/>
      <point x="263" y="350" type="line"/>
      <point x="354" y="514" type="line"/>
      <point x="373" y="479" type="line"/>
      <point x="283" y="314" type="line"/>
      <point x="373" y="150" type="line"/>
      <point x="354" y="116" type="line"/>
      <point x="263" y="279" type="line"/>
    </contour>
    <contour>
      <point x="67" y="16" type="line"/>
      <point x="67" y="613" type="line"/>
      <point x="471" y="613" type="line"/>
      <point x="471" y="16" type="line"/>
    </contour>
    <contour>
      <point x="102" y="49" type="line"/>
      <point x="437" y="49" type="line"/>
      <point x="437" y="577" type="line"/>
      <point x="102" y="577" type="line"/>
    </contour>
  </outline>
</glyph>
<glyph name="brevecomb.case" format="2">
  <note>
brevecomb
</note>
  <anchor x="248" y="591" name="_top"/>
  <anchor x="248" y="672" name="top"/>
  <outline>
    <contour>
      <point x="244" y="624" type="curve" smooth="yes"/>
      <point x="303" y="624"/>
      <point x="334" y="663"/>
      <point x="334" y="701" type="curve"/>
      <point x="318" y="701" type="line"/>
      <point x="318" y="660"/>
      <point x="280" y="640"/>
      <point x="245" y="640" type="curve" smooth="yes"/>
      <point x="211" y="640"/>
      <point x="184" y="657"/>
      <point x="183" y="701" type="curve"/>
      <point x="167" y="701" type="line"/>
      <point x="167" y="664"/>
      <point x="186" y="624"/>
    </contour>
  </outline>
</glyph>
<glyph name="caroncomb.alt" format="2">
  <note>
acutecomb
</note>
  <anchor x="232" y="541" name="_topright"/>
  <outline>
    <contour>
      <point x="236" y="540" type="line"/>
      <point x="246" y="540" type="line"/>
      <point x="265" y="651" type="line"/>
      <point x="250" y="651" type="line"/>
    </contour>
  </outline>
</glyph>
<glyph name="circumflexcomb.case" format="2">
  <note>
circumflexcomb
</note>
  <anchor x="250" y="591" name="_top"/>
  <anchor x="250" y="663" name="top"/>
  <anchor x="298" y="601" name="topviet"/>
  <outline>
    <contour>
      <point x="161" y="624" type="line"/>
      <point x="179" y="624" type="line"/>
      <point x="251" y="696" type="line"/>
      <point x="320" y="624" type="line"/>
      <point x="340" y="624" type="line"/>
      <point x="259" y="710" type="line"/>
      <point x="244" y="710" type="line"/>
    </contour>
  </outline>
</glyph>
<glyph name="dotaccentcomb.case" format="2">
  <anchor x="250" y="591" name="_top"/>
  <anchor x="250" y="630" name="top"/>
  <outline>
    <contour>
      <point x="250" y="640" type="curve" smooth="yes"/>
      <point x="260" y="640"/>
      <point x="264" y="644"/>
      <point x="264" y="654" type="curve" smooth="yes"/>
      <point x="264" y="664"/>
      <point x="260" y="668"/>
      <point x="250" y="668" type="curve" smooth="yes"/>
      <point x="240" y="668"/>
      <point x="236" y="664"/>
      <point x="236" y="654" type="curve" smooth="yes"/>
      <point x="236" y="644"/>
      <point x="240" y="640"/>
    </contour>
  </outline>
</glyph>
<glyph name="f_f" format="2">
  <advance width="356"/>
  <note>
f_f
</note>
  <anchor x="178" y="0" name="caret_1"/>
  <outline>
    <contour>
      <point x="70" y="0" type="line"/>
      <point x="86" y="0" type="line"/>
      <point x="86" y="458" type="line"/>
      <point x="238" y="458" type="line"/>
      <point x="238" y="0" type="line"/>
      <point x="254" y="0" type="line"/>
      <point x="254" y="458" type="line"/>
      <point x="370" y="458" type="line"/>
      <point x="370" y="474" type="line"/>
      <point x="254" y="474" type="line"/>
      <point x="254" y="548" type="line" smooth="yes"/>
      <point x="254" y="585"/>
      <point x="265" y="621"/>
      <point x="310" y="621" type="curve" smooth="yes"/>
      <point x="329" y="621"/>
      <point x="346" y="619"/>
      <point x="370" y="616" type="curve"/>
      <point x="370" y="632" type="line"/>
      <point x="361" y="633"/>
      <point x="336" y="636"/>
      <point x="311" y="636" type="curve" smooth="yes"/>
      <point x="290" y="636"/>
      <point x="275" y="631"/>
      <point x="263" y="621" type="curve"/>
      <point x="243" y="629"/>
      <point x="209" y="636"/>
      <point x="175" y="636" type="curve" smooth="yes"/>
      <point x="104" y="636"/>
      <point x="70" y="607"/>
      <point x="70" y="543" type="curve" smooth="yes"/>
      <point x="70" y="474" type="line"/>
      <point x="39" y="474" type="line"/>
      <point x="39" y="458" type="line"/>
      <point x="70" y="458" type="line"/>
    </contour>
    <contour>
      <point x="86" y="474" type="line"/>
      <point x="86" y="548" type="line" smooth="yes"/>
      <point x="86" y="596"/>
      <point x="111" y="621"/>
      <point x="176" y="621" type="curve" smooth="yes"/>
      <point x="197" y="621"/>
      <point x="228" y="618"/>
      <point x="252" y="609" type="curve"/>
      <point x="242" y="594"/>
      <point x="238" y="572"/>
      <point x="238" y="543" type="curve" smooth="yes"/>
      <point x="238" y="474" type="line"/>
    </contour>
  </outline>
</glyph>
<glyph name="horncomb.case" format="2">
  <note>
horncomb
</note>
  <anchor x="210" y="591" name="_topright"/>
  <outline>
    <contour>
      <point x="212" y="580" type="line"/>
      <point x="259" y="580"/>
      <point x="290" y="601"/>
      <point x="290" y="646" type="curve" smooth="yes"/>
      <point x="290" y="655" type="line"/>
      <point x="274" y="655" type="line"/>
      <point x="274" y="645" type="line" smooth="yes"/>
      <point x="274" y="606"/>
      <point x="250" y="591"/>
      <point x="210" y="591" type="curve"/>
    </contour>
  </outline>
</glyph>
<glyph name="longbar" format="2">
  <advance width="531"/>
  <outline>
    <contour>
      <point x="20" y="257" type="line"/>
      <point x="510" y="257" type="line"/>
      <point x="510" y="267" type="line"/>
      <point x="20" y="267" type="line"/>
    </contour>
  </outline>
</glyph>
<glyph name="macroncomb.case" format="2">
  <anchor x="250" y="591" name="_top"/>
  <anchor x="250" y="643" name="top"/>
  <outline>
    <contour>
      <point x="167" y="652" type="line"/>
      <point x="333" y="652" type="line"/>
      <point x="333" y="668" type="line"/>
      <point x="167" y="668" type="line"/>
    </contour>
  </outline>
</glyph>
<glyph name="periodcentered.loclCAT.case" format="2">
  <outline>
    <contour>
      <point x="-63" y="288" type="curve" smooth="yes"/>
      <point x="-52" y="288"/>
      <point x="-47" y="293"/>
      <point x="-47" y="304" type="curve" smooth="yes"/>
      <point x="-47" y="315"/>
      <point x="-52" y="320"/>
      <point x="-63" y="320" type="curve" smooth="yes"/>
      <point x="-74" y="320"/>
      <point x="-79" y="315"/>
      <point x="-79" y="304" type="curve" smooth="yes"/>
      <point x="-79" y="293"/>
      <point x="-74" y="288"/>
    </contour>
  </outline>
</glyph>
<glyph name="t_i" format="2">
  <advance width="356"/>
  <note>
t_i
</note>
  <anchor x="277" y="0" name="bottom"/>
  <anchor x="224" y="0" name="caret_1"/>
  <anchor x="111" y="378" name="center"/>
  <anchor x="285" y="0" name="ogonek"/>
  <anchor x="280" y="570" name="top"/>
  <anchor x="142" y="528" name="topright"/>
  <outline>
    <contour>
      <point x="141" y="0" type="curve" smooth="yes"/>
      <point x="166" y="0"/>
      <point x="191" y="3"/>
      <point x="200" y="4" type="curve"/>
      <point x="200" y="20" type="line"/>
      <point x="176" y="17"/>
      <point x="159" y="15"/>
      <point x="140" y="15" type="curve" smooth="yes"/>
      <point x="95" y="15"/>
      <point x="84" y="51"/>
      <point x="84" y="88" type="curve" smooth="yes"/>
      <point x="84" y="479" type="line"/>
      <point x="278" y="479" type="line"/>
      <point x="278" y="495" type="line"/>
      <point x="84" y="495" type="line"/>
      <point x="84" y="592" type="line"/>
      <point x="71" y="592" type="line"/>
      <point x="68" y="495" type="line"/>
      <point x="30" y="493" type="line"/>
      <point x="30" y="479" type="line"/>
      <point x="68" y="479" type="line"/>
      <point x="68" y="93" type="line" smooth="yes"/>
      <point x="68" y="31"/>
      <point x="89" y="0"/>
    </contour>
    <contour>
      <point x="272" y="0" type="line"/>
      <point x="288" y="0" type="line"/>
      <point x="288" y="495" type="line"/>
      <point x="272" y="495" type="line"/>
    </contour>
    <contour>
      <point x="280" y="566" type="curve" smooth="yes"/>
      <point x="290" y="566"/>
      <point x="294" y="570"/>
      <point x="294" y="580" type="curve" smooth="yes"/>
      <point x="294" y="590"/>
      <point x="290" y="594"/>
      <point x="280" y="594" type="curve" smooth="yes"/>
      <point x="270" y="594"/>
      <point x="266" y="590"/>
      <point x="266" y="580" type="curve" smooth="yes"/>
      <point x="266" y="570"/>
      <point x="270" y="566"/>
    </contour>
  </outline>
</glyph>
<glyph name="t_u" format="2">
  <advance width="577"/>
  <note>
t_u
</note>
  <anchor x="218" y="0" name="caret_1"/>
  <outline>
    <contour>
      <point x="141" y="0" type="curve" smooth="yes"/>
      <point x="166" y="0"/>
      <point x="191" y="3"/>
      <point x="200" y="4" type="curve"/>
      <point x="200" y="20" type="line"/>
      <point x="176" y="17"/>
      <point x="159" y="15"/>
      <point x="140" y="15" type="curve" smooth="yes"/>
      <point x="95" y="15"/>
      <point x="84" y="51"/>
      <point x="84" y="88" type="curve" smooth="yes"/>
      <point x="84" y="479" type="line"/>
      <point x="281" y="479" type="line"/>
      <point x="281" y="495" type="line"/>
      <point x="84" y="495" type="line"/>
      <point x="84" y="592" type="line"/>
      <point x="71" y="592" type="line"/>
      <point x="68" y="495" type="line"/>
      <point x="30" y="493" type="line"/>
      <point x="30" y="479" type="line"/>
      <point x="68" y="479" type="line"/>
      <point x="68" y="93" type="line" smooth="yes"/>
      <point x="68" y="31"/>
      <point x="89" y="0"/>
    </contour>
    <contour>
      <point x="384" y="-8" type="curve" smooth="yes"/>
      <point x="447" y="-8"/>
      <point x="478" y="19"/>
      <point x="493" y="50" type="curve"/>
      <point x="495" y="0" type="line"/>
      <point x="509" y="0" type="line"/>
      <point x="509" y="495" type="line"/>
      <point x="493" y="495" type="line"/>
      <point x="493" y="106" type="line"/>
      <point x="488" y="49"/>
      <point x="457" y="8"/>
      <point x="384" y="8" type="curve" smooth="yes"/>
      <point x="284" y="8"/>
      <point x="281" y="73"/>
      <point x="281" y="132" type="curve" smooth="yes"/>
      <point x="281" y="495" type="line"/>
      <point x="265" y="495" type="line"/>
      <point x="265" y="123" type="line" smooth="yes"/>
      <point x="265" y="62"/>
      <point x="271" y="-8"/>
    </contour>
  </outline>
</glyph>
<glyph name="tildecomb.case" format="2">
  <note>
tildecomb
</note>
  <anchor x="249" y="591" name="_top"/>
  <anchor x="291" y="499" name="_topviet"/>
  <anchor x="249" y="654" name="top"/>
  <outline>
    <contour>
      <point x="289" y="630" type="curve" smooth="yes"/>
      <point x="314" y="630"/>
      <point x="330" y="647"/>
      <point x="334" y="672" type="curve"/>
      <point x="319" y="672" type="line"/>
      <point x="316" y="649"/>
      <point x="302" y="645"/>
      <point x="289" y="645" type="curve" smooth="yes"/>
      <point x="257" y="645"/>
      <point x="243" y="675"/>
      <point x="209" y="675" type="curve" smooth="yes"/>
      <point x="183" y="675"/>
      <point x="169" y="657"/>
      <point x="166" y="634" type="curve"/>
      <point x="181" y="634" type="line"/>
      <point x="184" y="656"/>
      <point x="197" y="660"/>
      <point x="209" y="660" type="curve" smooth="yes"/>
      <point x="237" y="660"/>
      <point x="254" y="630"/>
    </contour>
  </outline>
</glyph>
